<mxfile host="app.diagrams.net" agent="Mozilla/5.0 (Windows NT 10.0; Win64; x64; rv:136.0) Gecko/20100101 Firefox/136.0" version="25.0.3">
  <diagram name="Page-1" id="W1EPDI2-okBSu2pc3-hk">
    <mxGraphModel dx="1481" dy="533" grid="1" gridSize="10" guides="1" tooltips="1" connect="1" arrows="1" fold="1" page="1" pageScale="1" pageWidth="850" pageHeight="1100" math="0" shadow="0">
      <root>
        <mxCell id="0" />
        <mxCell id="1" parent="0" />
        <mxCell id="sNuDHfzyufjpb4VffAJZ-1" value="" style="rounded=1;whiteSpace=wrap;html=1;" vertex="1" parent="1">
          <mxGeometry x="310" y="270" width="390" height="180" as="geometry" />
        </mxCell>
        <mxCell id="sNuDHfzyufjpb4VffAJZ-22" value="" style="edgeStyle=orthogonalEdgeStyle;rounded=0;orthogonalLoop=1;jettySize=auto;html=1;entryX=0.5;entryY=0;entryDx=0;entryDy=0;" edge="1" parent="1" source="sNuDHfzyufjpb4VffAJZ-2" target="sNuDHfzyufjpb4VffAJZ-23">
          <mxGeometry relative="1" as="geometry">
            <mxPoint x="210.48000000000002" y="339.28" as="targetPoint" />
          </mxGeometry>
        </mxCell>
        <mxCell id="sNuDHfzyufjpb4VffAJZ-2" value="" style="verticalLabelPosition=bottom;aspect=fixed;html=1;shape=mxgraph.salesforce.web2;" vertex="1" parent="1">
          <mxGeometry x="160" y="130" width="100" height="100" as="geometry" />
        </mxCell>
        <mxCell id="sNuDHfzyufjpb4VffAJZ-3" value="Teguiei - Frontend" style="text;html=1;align=center;verticalAlign=middle;resizable=0;points=[];autosize=1;strokeColor=none;fillColor=none;" vertex="1" parent="1">
          <mxGeometry x="150" y="90" width="120" height="30" as="geometry" />
        </mxCell>
        <mxCell id="sNuDHfzyufjpb4VffAJZ-5" value="" style="outlineConnect=0;dashed=0;verticalLabelPosition=bottom;verticalAlign=top;align=center;html=1;shape=mxgraph.aws3.ec2;fillColor=#F58534;gradientColor=none;" vertex="1" parent="1">
          <mxGeometry x="405" y="230" width="30" height="30" as="geometry" />
        </mxCell>
        <mxCell id="sNuDHfzyufjpb4VffAJZ-6" value="InstÃ¢ncia EC2 - Ubuntu" style="text;html=1;align=center;verticalAlign=middle;resizable=0;points=[];autosize=1;strokeColor=none;fillColor=none;" vertex="1" parent="1">
          <mxGeometry x="425" y="230" width="150" height="30" as="geometry" />
        </mxCell>
        <mxCell id="sNuDHfzyufjpb4VffAJZ-7" value="" style="shape=image;html=1;verticalAlign=top;verticalLabelPosition=bottom;labelBackgroundColor=#ffffff;imageAspect=0;aspect=fixed;image=https://cdn1.iconfinder.com/data/icons/ionicons-fill-vol-2/512/logo-docker-128.png" vertex="1" parent="1">
          <mxGeometry x="545" y="276.25" width="30" height="30" as="geometry" />
        </mxCell>
        <mxCell id="sNuDHfzyufjpb4VffAJZ-57" style="edgeStyle=orthogonalEdgeStyle;rounded=0;orthogonalLoop=1;jettySize=auto;html=1;exitX=0.873;exitY=1.014;exitDx=0;exitDy=0;entryX=0.827;entryY=-0.021;entryDx=0;entryDy=0;entryPerimeter=0;exitPerimeter=0;" edge="1" parent="1" source="sNuDHfzyufjpb4VffAJZ-9" target="sNuDHfzyufjpb4VffAJZ-55">
          <mxGeometry relative="1" as="geometry">
            <Array as="points">
              <mxPoint x="668" y="430" />
              <mxPoint x="670" y="430" />
            </Array>
          </mxGeometry>
        </mxCell>
        <mxCell id="sNuDHfzyufjpb4VffAJZ-65" style="edgeStyle=orthogonalEdgeStyle;rounded=0;orthogonalLoop=1;jettySize=auto;html=1;exitX=0.847;exitY=-0.001;exitDx=0;exitDy=0;entryX=0.75;entryY=1;entryDx=0;entryDy=0;exitPerimeter=0;" edge="1" parent="1" source="sNuDHfzyufjpb4VffAJZ-9" target="sNuDHfzyufjpb4VffAJZ-60">
          <mxGeometry relative="1" as="geometry" />
        </mxCell>
        <mxCell id="sNuDHfzyufjpb4VffAJZ-9" value="" style="shape=ext;double=1;rounded=1;whiteSpace=wrap;html=1;" vertex="1" parent="1">
          <mxGeometry x="519.88" y="310" width="170.12" height="120" as="geometry" />
        </mxCell>
        <mxCell id="sNuDHfzyufjpb4VffAJZ-10" value="teguiei-api-1" style="text;html=1;align=center;verticalAlign=middle;resizable=0;points=[];autosize=1;strokeColor=none;fillColor=none;" vertex="1" parent="1">
          <mxGeometry x="575" y="276.25" width="90" height="30" as="geometry" />
        </mxCell>
        <mxCell id="sNuDHfzyufjpb4VffAJZ-11" value="" style="shape=image;verticalLabelPosition=bottom;labelBackgroundColor=default;verticalAlign=top;aspect=fixed;imageAspect=0;image=data:image/jpeg,/9j/4AAQSkZJRgABAQAAAQABAAD/7QBmUGhvdG9zaG9wIDMuMAA4QklNBAQAAAAAAEkcAVoAAxslRxwCAAACAAAcAnQANcKpIGZhZWxpYXNvIC0gaHR0cDovL3d3dy5yZWRidWJibGUuY29tL3Blb3BsZS9mYWVsaWFzAP/bAEMABQMEBAQDBQQEBAUFBQYHDAgHBwcHDwsLCQwRDxISEQ8RERMWHBcTFBoVEREYIRgaHR0fHx8TFyIkIh4kHB4fHv/bAEMBBQUFBwYHDggIDh4UERQeHh4eHh4eHh4eHh4eHh4eHh4eHh4eHh4eHh4eHh4eHh4eHh4eHh4eHh4eHh4eHh4eHv/CABEIAlgCWAMBIgACEQEDEQH/xAAbAAEAAgMBAQAAAAAAAAAAAAAABAcDBQYCAf/EABoBAQACAwEAAAAAAAAAAAAAAAADBAIFBgH/2gAMAwEAAhADEAAAAbgAAAAAAAAAAAAAAAAAAAAAAAAAAAAAAAAAAAAAAAAAAAAAAAAAAAAAAAAAAAAAAAAAAAAAAAAAAAAAAAAAAAAAAAAAAAAAAAAAAAAAAAAAAAAAAAAAAAAAAAAAAAAAAAAfMBI+RPZkxZc5BbEa5sRrmxGu9zsZi94sZKQ8pnfPoAAAAAAAAAAAAAAAAAAAAAAAAAAMBmjeZpDk5wRuXyg7H5VWkk1twa+qGVSzvNZsorPlVM8yuqdQ8nGxd6remwv9ZH9Zo7+u9zsL19h5zKAAAAAAAAAAAAAAAAAAAAAAAB8+RD7nzZA8cHlX6/huT8WOf9+CTWAAAAAAZuw4ljPdsuje9g33aw5f2Lba+Uhk18+gAAAAAAAAAAAAAAAAAAAADz9hjY/PQ1sWq5NXN1Ra5oGIAAACbtMuNrmRlVAAA31n0lOj2V1eNfs6vTa2Z6hM5j59AAAAAAAAAAAAAAAAAAABgMU3DKGjl1BJq/GItcwAAAAAOk8k7rh7Sq2vv+ZFnnAAAAJVuUzsI790YfEmr1cCVHyPcgAAAAAAAAAAAAAAAAAAPkT1KMvj3wWVfmtSW+OD3EAAAABcPC2jX36rbSq3yxzIs8wAAAAB0dq0PZUG867W7KPBv/X3BnAAAAAAAAAAAAAAAAAHz7gMewwZyDTPW8dZ5cJdYAAAAA+/Oq8l7raFLs1W2lVsuu5kWeYAAAAASop7eWbh+4p9lrpeL1jYyAAAAAAAAAAAAAAAAAQpkYn4M/I+wV1iLvFgAAAAAerk4ay6/QhDulW2lVsur5kWeYAAAAAAnXTRFtQ7ve6/Y6+v0Et8+gAAAAAAAAAAAAAAAGP5jlGSrbSpGbTxRY5wAAAAB689j5N3E8pdmDJVtpVbLq+ZFnmAAAAAAHa8VuMbNwQpsen2X31hzAAAAAAAAAAAAAAAAEPY67YkOk7cqOxzgTacAAAAD3dHEWJX6IIdyAiyjyCnPcIKcINf2FS8uoxixz4AADJjF7fI0uj3MGVDmMgAAAAAAAAAAAAAAAIex12xObqu0aus8wEurAAAAZcXb4z9tLKfZAyAAAENjw3GZMd3jA9hAAAAuPa6fcUu11s2FN8mAAAAAAAAAAAAAAAAh7HW7I5yqrfqCzzQS6kAAADNdPFd9W6QItuAAAArruaXm02MWOdAAAAAuTaRZNLt9fMhzPJAAAAAAAAAAAAAAAAIewhyDHSF8UtPooAn0IAAD78FkSKvR7K0FXvPbQVeLm2XEdvBvwxsiGx4bjMmO7xgewgAAAM+DfeSW1jyRqXb4pOLKAAAAAAAAAAAAAAAAeMeaKbCtLL5rOjVgt8kAAAAAABYPb8R29TrQwvK67ml5tNjFjnQAAAAHecHcUWz20Gdrq3USvQAAAAAAAAAAAAAAAAIczESvGCU8pKJ33A3OODKsAAAAABYPb8R29TrRDwucNxmTHd4wPYQAAAANvcPKdXV6nzB95Y9l7AAAAAAAAAAAAAAAAA+fRC2UPIfaYu7kpdXWgs8wAAAAABYPb8R29TrVddzS+dTGLHOgAAAANpq7awu736iVOuwTcWUAAAAAAAAAAAAAAAAAA+Q5uMkoU0q3mbxqKzzOrEuqAAAAAsHt+I6up1nDcZkx2uZD2EAAAAb7zPb2H59VOv+a71Ixs+wAAAAAAAAAAAAAAAAAAARZH2IbGDKyMaWgXXVNrl9UJNcAAABYMH7x8W1xiXVAAAADf8AmeC2Wer1SL7jYXsmcAAAAAAAAAAAAAAAAAAAAHz6IU7zENji8SHlZcpfHNT6OrGw18+jBiABlxAAAAAbaxcL3NWB6VukYMeLGylPoAAAAAAAAAAAAAAAAAAAAAABG+SvBn+62QZ+S7B7BTervjTzain3eaKTW6BJjZ1QeAEvb+S86sDpY79adr1KLbfPqJHsZMHzLMWcAAAAAAAAAAAAAAAAAAAAAAAAAGHMIWbP4M3rX/DYoOQlYPXt5B8bN7HAk5vPmXphxM5aD4J0TzII2fKAAAAAAAAAAAAAAAAAAAAAAAAAAAAAAPPnII/iWIfyaIf2WI+TIPn0AAAAAAAAAAAAAAAAAAAAAAAAAAAAAAAAAAAAAAAAAAAAAAAAAAAAAAAAAAB8PrBiJaMJKMJSHkJD59B5PTF4JCOJCP8ATOx+z6AAAAAfD6+D6AAeT0xDK8+gfD6x4yQiCWj5DI+D68YzOx+z6AAAAAAAeT5FbEwSGB5ncfp86NkK22nvna4cMyO9rs8qAyyeMO0I/rMMLMMLMIuHYYzx6iyD08/T6A+fD08/DF59TSB9nDXycsElngw/U0jJIheZ8Q9xvGzI2TMPL58eecUs9geNkImXMIuHYeTF6iygAAAAABDk4yX9aH2PDW2Dza5QZM6uaL3vBY2Mlg10L2cj11Tq4E88m4bh+05a1y0RbbGepFtj3s8eSvv4HqaZwfOwGuTfZB9TRC8zxhzBW/V1XZU+g6eBPQb/AF8bc/B9aL2PgsWr+W+QvNzvR1Ou0e8iS/Jefq+yqus80+XN68zqDoeu4H2Kz59K3NFt/FK3TR+dC3N5od9DuNdMhTfJwAAAAAIk6BsT5TlmVDPoQn0btOQueLac5W1ocC91rPgl1ee6KQsyHb9UK/RcFzXS81Z5i4nxW6f6+fRx3Y8vlU5HF1/2bU6Xu6mmFrmrr76Bx/Od9Z57nZ/TazyTss3z7X39HbrS9Jb5DN9nfY9j23359g3yrrEpabTdh47XF5nwNr0Pc2UWyEG85mr7Qq+zzF6evPqt0zWbPVex05bVS23Y5/a0feFH4y21vtDvotxrZsKbjYAAAAAAh7HXbE5Ws7Qq+zzA+y6ztu/5mfV6rb+fXJ4WuG1xd413XC9/Hd7cVer4LhO75e1ysBcbGzTnS99mxllnKxbfqlUxJNb31W7fTTam9uc6HzV6ej7rq3WWecu9XvaV9/OGNqjrKrWyrPM9OK3TD4cJzkTtbPMdq8K3TU/0UribXL3a8+qvUczV1o1bZ5m5flPffJbQ4ONv/Y9DcsSdDt49H3hR8mutrfaHfRbjWzYU3GwAAAAABD2MLOYaWvWs5tNyosc83Gn3Hk1uU53NaxbMJtMtqvrdg3gQb7gua6XmrPMXERK3Ty2o25ztWd7ydnmez3G5Qb3i68t2op9Denvx7rdN857onsdTaS9Kdsc9ZO54HvoN3R1lV33U+k7EVumc/wBBWWdHlHRWdPpKQXews0evCr86vZdNVlpwbvmavtCr5tPefvz6rdMR/D2W1O1MFH3hR8/P21vtDvotxrZsKbjYAAAAAA8x5UYnR/ud5Turu/gbPOcdttb4k1uw1z17j5l7ywotjj2LHW6XI0+4ZcFzVi66fRddFlQ4N7H2ms2Jp6jvbSS6rkdpBw50/XH9rO9i7HSb2BX6DhtnHhT6SXxfXdIxxdOQb6tOfubi5tNihep3uHU09bWgxmndViyxbX41P3ybbcl1uH2Cj7s5HpZdbrKvuTmfY+28+8UG8hS8ed7Dnw5Rjo+9eKl1G630GdHsdbNhzPJgAAAAAHz6Ikj1gJrX5zJq9v69j0uykfD6wR/JJUL3JIk/HGJ7XjYa/wCSD7GmeTL6142CAJ6D5Ng1w2KAJ6B8J+OH9Ng1/wBJ6AJ7XjYRMOU+swxSoeI2KB8Ng1302EHxmMnoPGPPgJjXeifgi+z1n+fQAAAAAAAD5izCJ8mCH9ljBm+gAAAAAD4+j59AD4+j4+gB8+j4+gAAAAAAAAAAAAAAAAAAAAAAAAAAAAAAAAAAAAAAAAAAAAAAAAAAAAAAAAAAAAAAAAAAAAAAAAAAAAAAAAAAAAAAAAAAAAAAAAAAAAAAAAAAAAAAAAAAAAAAAAAAAAAAAAD/xAAvEAABBAECBAUEAgMBAQAAAAADAAECBAUGERASEzAUITI1UCAxMzQVIhYjQIAl/9oACAEBAAEFAv8A3Dunmyc0V1XXMR23MtzLcyeZGXVTGimk3z0ixZbkmujJ0wIJoRbsPCDpwQXSmy55xUSRf5mRPNhkmoihH6HdmRL1QanmaEU+epL+fpps9SdQzFCSFcqkX3+iQYOngWCgTf5WZGiowmRQhGDcDnCCNnPgirGZulRDFI/1isHEq+buDVXO1iIRRljwIOM07TEoTaXyUpvJxhZuNy5Xqxu505EScyS7oSkDKlnpxVayGzDgQKhPz+Od9l5llCEYMiTiOGSzjupylOX/AAhKQM8bnIzTOzsiDjNNJxybz+Md9kzOWTMzMr90NMWQvnuT7luvKvPsYzJmpvUsCsiUotJvMUm+L8yyhFoxWVyI6Q7BiWC9zA1PE3dS+59mlaLUNjrorgUSDTjF3hL4kkndxxaEVlshCkIpJlJ3cNV8LS1L7n2qlglY2OuDuARoc8Qy+ILLljXhsyyFuFOvZMSwbu6fqeIuLUvufboWiVLFU8LAFYioS5m+FdQbqFU5RhDK3JXLPdbzWIq+EpLUvufcwV/wljh+MvwppeQo8kFqa739O1Ovb4al9z7unLvWCjx5oBlzR+EE3OVX7EatUk5EJ3WZ3fFVWqU+Gpfc+7UPKtYCSJhL8ZvgzPtEEeUa1Pa5z97TdTrWuOpfc+9pa1vBWY/0G+8fgif2IrBGCA03KXuxZ5SxtZqlPjqX3PvUDvWts7OztuwPL4MHmVaoPyU+9pqp1bP0al9z7+AP1sap/wBbHwJH2jVbYa1IbqZHuwi854+u1Wp9Gpfc+/pQ2xlaZR+3wFj0CbYatk6tru6ZqdQ/06l9z7+FJ0smrDbiF6PgLHmm+16fTp90cJEJRrxrVfpJXASXg6i8HUXg6i8HUXg6i1FIDWOyKXISL7xI28K/o+AJ5lWdly4ru6Yqc5e3dPGtVJORCdqjLmpP9q/l8C/7C1I//wAvuChIpaYI1q3b1Pa5zdvDvvjED1fAP+wtTe2dzS9TefbunjWqknIhO3hfa0D1fAP+wtRtvi+2AcjGqhjXr9vU9rnN3MS22NQPV8Abyms3Hmxfb0vU8+3dPGtVJORCdypHkqv9q32+AseSb7WodSt2m+9bL48AP52kv52kv52kv52kv52kqF0Nxvp1Pa5zdyvDqWG+xH2HX9HwB/QHzEsiPo3v+DSf4vounjWqknIhO5gBdTJqz+Ifp+An6avoWqA8l3/g0n+L6NT2uc3d0oHhZ85N9vgQ+R1qMHVx/wDwaT/FxunjWqknIhO7iAeHx6f+1j4Iv9ZqcWnC4F69nv6T/Fx1Pa5zd3D1/E31J+WIG8vgiNvGs+41qir5d/Sf4uF08a1Uk5EJ3dNVelVVp/KLbN8G3+syOKJg2wSr2O9pP8XDU9rnN3cXVe3bizRiof3J8IWO8a8+aC1FR6wO9pP8SunjWqknIhO7hKXhKqsy8httH4X8ZeGeoeGN3dJ/iWp7XObu6cx/PJO+zD3nP4aceZgT24HFA4clTnTsdzSf4rp41qpJyITuYfHyuGhFoRRpdSUW2b4csUGfPFXao7YL1QtQ3b0n+LU9rnN3MXQJdLXCMAkcmyFDlb4mcXjIc2nFXKwrQcjRLSJ2sAeNagSciE7eKxpLkgBGASKRoMKHxkmeEhzacUYcCjymHIDtdSXR7Teb4rCvJRi0YopGgw4O7/Gzg7OIrT45LEAsq5TsVZf8NHH2bb47GV6nEpdnGP5CY91ArxTPuynGM43cEEit4+1W71TF27CpYSsFMzMyk7RaRJEQ4NH5KUWdcsxvA0X+izjaZ1Y0+jYe8NErnH9Q61giDhrxFX0/BlWoVK/0SOyaEpOzbfKyg0lsSCidRkz/AEyCGSelUdfx9JNSqMoiFH6ZSjFOfdcs5qMGb5l4s6cK/wB0V15MuvBMSDvu30bsuqNeIgnNJ1/tkmCyZmb57ZcjJxRXQiuk66TrpLoxTCiuVv8AyxIjMuYkl0yuuiRdEi6ZWW5YqJWf6N084rqxXViurFdWK6sU0m/5d2XPFNOK3b6Odl1YrrRXWimLFNJuLyZdSKabf8Mn2X9yvAUI/XMUJJ2mJQk0mJLlaInkmCNl0hrpDXSGukNdIacEE7SEm8+1OeyaJZLokXRIt5wTPvxnLzYO6YA2dwDd3AoSfeT7M0ZkXQgukNbMtmXSGnBBOMkUzGmmBFdIa6EFKMhqL7t3XfZos5ZM2zI5hBhYzwIqefsuo560gZ8bqtaBZjwLDpqD9Q3YK3MMEv6bst/p3ZbsnfyrNv8ARJuaIH4SfZq0d/psx8iS3izbNw5ornh2JNvGv6e7P+82bZllspCorBynJwYMvCoc5jniMwxX4BByHWqpzi/WMusZdYy6xl1jLEu741NWZl4dOB1ylimMy6kprpEddBeHUq/9Qw6Y1azltiYI5bNFOCXU2MylN5yZtmWXuzPext0le43mztu0W2srPlIHHTOaa3fgOwcaqZyyN6VsNsasfr9YywLvLEoHq7k32as3ks1e8HXk7ylwHCRCZsEa2H46fyHXhx1b98XCJMh/G0V/G0V/G0V/G0UOERw+mUISTMzN9Vn9jTPtnHZuGcs+GoBHIpSwkMmnrPXoqYeawtS+2R+8KVTlelUdHw9EjZTHFpSoWZ1LApsQdn9Zaf8AaED1dyx6YNtF/JsnZe1c46YqcxNU/o8QFkE1ckTA4at++G90+nLZctWzPNX5JsvkGVXPlZ6tgVkXDJZYNRy5u9N2y99kLP2ooE+oFWf2MflS0wf5BYTagsbt5tw1HZ617S9bnPqet07OAs+Hv8dS+2R9UfTwyomLj1p+fNirP6y0/wC0IHq7k/MqzReljeIRyKWoCNetqIRDU/AXEYJQvw0wXnocNW/fDe6fTksT4y3DA1GRMDUdslRLSLgLT17yyth61DzlKlgYcj4OijafjvFtmVn9jF4mNyr/AI9BNp6G7eTK8dq1STvKWKr+Go5mv4nH/Z8ZY8TS4al9sj6o+nhlisHHLAQ5MXZ/WWn/AGhA9Xcf9haof/53HTFTeXCTtGORsvat8NJvx1b928lzzXPNc81puUnyf0aiG08YN+UkfNtSReWLHLlJVOOwH6LP7GmfbPo1VYWFr+IyHDLV/DX9K2NicNS+2R9Ub1PlfI0mR81SG2TyBbs8fVnbsji0IWf1lp/2hA9Xcf8AYWpY82N4N5vVyONBXDkqZirUlrpVuOlI/wCvhq374qMZ5HwNNeBprwNNCq1xSWRzQa8i5m9Nfyd9FylstdvvD0FhEo8njTU51zmBKpn5sqluvajws/saZ9s4u+zZA/ibmlxRgDniueK1QGMxUzPXswk0oLUvti5JJhzdDpWyKpgrE3p1Q1BKz+stP+0IHq7hvKSui69R22fjhfdJO0Y5Gy9q3xwQOhjuGrfvhvdPo1BZlXowjKc6WCDGH8XQWXxlMVJvvD0J23a5h6h1fxVmqhEmKeIueMqKz+xpn2zjn7HQx/Dd1u/HTljrUFqX2yPqi39fps/rLT/tCB6u4dt4BlzDWoqfRs8cL7pqS10q3HEVHt2+OrfvhvdFb36NXmYy1Z+PEO0clwzntTfeHo+jMCgHI6Sd+ZX48t3SpGepx1NY6l3T1fr3+gFdAK6AV0ArP1+hkNOWOjkFqX2yPqj6U5hsnPFFMXZvtZ/WWn/aED1dx/sB+WashhYDkaRaZuGHdo5LI2XtW+FSuWybH1IU6/HVv3w3uitfih5GWZqvbpPvGVTOmHD/ACESyGaazVb7w9GdsTr0K+esQZtQiR9QSeJJyITTtSVeotS1XHapWi1DR1C+1jPWZsGyz40s3IXTIOnRW7LduGpwdSnCTxnUKx62pfbI+qPpK+w6425eVlY9EfTZ/WWn/aED1d00d2DPnijhGcd/Blg5ITHJvLhFnk9HDWDKnVDVGiTaEa/N4pZXHNeVPCRr2Va9JG/rF+aKv4utbcmni7tgLSjp4iHp8LO3k16mK4M2nn3/AIC2h6fO6o4itWlwMOBh2NPs8v4C0gaeRqEZY/8Ax6CDBhCTQ6pOXpERxxKH/HoLG1fB18jVa5WbT0d2+x/xB9CP6BvuMkecf+PQVCv4WogffvTg7OIrT4kGMjSxdCSjiseyEEIm4Em0GizzkRuWUZNJuJH5yu3lGTieLtJu27szMSD9g8/IceWJY80Qk3b6jy5lHyZTbdq8tm4mnyxDHaPfmPdMQkFE0HW7cd2UjQZOWclAfmnXTdn/ANzPuZ1yTdQi0eDtunEtzM3VIusRdYi5zLYy3My6pF1iLrEXOZ10ndOGKZixTEKy6xE5CuuY65jLYqgNm4zGzrYq5jJ3M6brMuYy5SOoQaP0TG0lsVcxlsZRH5/8Tji66LLpOuk66LJhxZbf+/P/xAA7EQABAwICBggEBQIHAAAAAAABAgMEAAUREhATICExQTAyMzRAUWGBFSJScRQjJHCxwdElQkNQU5Gh/9oACAEDAQE/Af2ndktM9c05eWx1BjSry6eAFfFpFC7vjypF6+pNNXKO5zw+9A48PGyJTbAxWakXR13cncOgZkusn5DUW6oc+VzcfFzriGPlR1qWtSzmUdoR/wBOXT57MK4qY+Ve9NIWlacyfEXCdqBkT1qJx2mWi6sIFXNsNxQkbUCaY6sD1aBChiPDSZAYbKzS1lxRUrbs8fAF01d+w99u0y/9FXt4a6SNY7kHAbbDRecCBSEBCQkVd+w99tKik4ior4faC/CSHdU0V0Tjt2iPlTrTz0XfsPfoLM9vLfhLw5g0E+e3HZLzgQKSkIGUaLv2Hv0EJzVvpPhLyr8xI9Nu0R8qNaeekgHjWqR5VqkeVXZxKE6tI3nZG6knEY+Du/b+21GYL7gRSUhIwGypQSMTUh4vOFZ2o/ZJ+3g7wPzgfTatMfI3rDxO1d5GVGqHPbaGCAPB3pG5KtoXV8DAYV8XkelfF5HpUN1TrIWrQpQSMTUh4vOFZ2mUZ3Anwlxa1kc+nQ27uydF3kZUaoc9u0tZ383l4WWxqHSnoLd3ZNKUEjE1IeLzhWdu2MapnE8T4W6Rda3nTxHQW7uyau8jKjVDntwIuvd38B4e5QtUrWJ4HbgKCYqSakPF5wrO002p1WVNRY6Y7eUeHUkKGBqdAUwcyertOyMsNDQ5/wB9pppTqsqahQkxk+viSMal2n/Mz/1SklBwVsY7MWA6/v4Co8VuOnBPjHo7bwwWKes3/GacgyG+KaII46UMOr6qaatLy+tupi2MtbzvP+wkA8a1Lf00EJHAfsUSBvNLuUdPOkXOOrnSVBQxHhcR0rriWklSqlTFyDv4VxqSxqVZajSlx1Ypph5LyM6dE/MqWUj0r4Q/9VfCH/qptOVIG3b5DrkghStLrgbQVHlRecz631plwOoCxz0XZR1+GPKvgzn1U5HlQ/mB3VAmfiU7+Iq8kgpqL2KPsOhvD28N6LXH1jmc8BVzbWp/cKII3GrQ9g4W/PRL797jTMDxb/J41+En8c3/ALUWe807qnqWsISVHlQkS5ijq9wr8NPb3hWPvQ4b6jh4unU8a1dy8/40Xh/BIaHOjB/RZOfGrO/iC0dF27x7UKfw1asas2OuP2q9dZFRewR9h0N27fRDLLLYQFDGn3Qy2VmlqK1ZjVs7ynRPTmllP2r4O79VMWtxtwKKuFOvIZTmWaN4Z5A1OkIfcC0U83rWinzqLIVBWUrFMTGX+qdFr7ydKf1c3Hl/QViKX+jmY8v6aLv3j2r4w79NOOzJny4bqgQ/wyd/E1eusiovYI+w6G7sZkhwctEftU/cVd5GZWqHLRZ2OLp0S+/e403ElyVkPDdSIbCBgE1dW0oeGUYbqHCnGUOjBYxq4QRHwWg1BdLrCVKq2/LKw++i4Papg+tRLcqQjPjhXwVX11Ltyo6M+ONW17WsD0q7d49qGm9dZFRewR9h0JAIwNS7YtBzN7xSFatYPlSlFasTUS2rdOK9wpCAgZU6JEJ5crWAbt2m4W8vnOjjSTcUbv7U5EmSFZlj+KfStTRCONA3FvdRizJR/N4Uy0GkBA5VLt7od1rNf4iv5f7VPjSH8oA4fzUdrVNhGiQ1rWiirbGfYUc43GrhCeeezIGxc4rr5TkFMJKGkpPl0amkL6wxpLLaOqn9t//EACcRAAEEAAUFAAMBAQAAAAAAAAEAAgMREBIgMTITITBAQSIjcFBR/9oACAECAQE/Af5OGk7IQldELpNXSajCjG4e81pcmxAeAtBToiNvbZHaArVm/KtL47VV7EbM2smhajNu1PZm9drcxQFa5XfFFy1ys++tE2hrJoWj3UXLwOFGvUaLNeCV3zCLl4Jh99SEd9bjQvGLl4Hi2+pDtrld80WVZUQvv7MPHU40L1tFCtTt/Th21Sus1qib91nf04Tq6QXSauk1PFGsWihWomh6kZp3hk5YRN+65T29VhseCTlg0UK1yOs+rE6jXgk5KJv3W92UevG++2t/JNFCtRNJzsx9hkmbUG/mTqJpPfm9pkv/AHxOkDU5xd7gcRshN/1B7TozAIyhOkJ/wrKv+FiNy6Tv8MC01gbg02nNDkRRwj4rqhdUI65GgNxAtUKpEUcItl1gg5r09mVQp2/hhH3CV1ClEfxwmHa8GcMWVfdZ2JzARYQ7rK1m6zRnB1V3Vx4Qj6s/52ph9wi44N3U2yhTtz4YuOD7JtNFmsJOOEfBdYIyghAE7LolMblFFA0U5ucdkWEYS8ceDMB+bMIuK6IQDGJ78yhTtz4YXfMHbKFv3CZ3zBnDGPs1F5KiNjAEhRvzdiniipOOEYsp0mUrrJsmYqQU5RcdEKdufEyW90e4WydIBti14Daxjky9iv1lB7G7Ju/dfrKzMbsibNpkgqiv1hRuaE42bwaaNqRwco3gDvoicG7p2/jshWf5v//EAD4QAAEDAQMIBwcDBAIDAQAAAAEAAgMRECExEiAiMDJBUXEEE0JQYXKSIzM0UoGCkUBioRRDsbKA0SRTYMH/2gAIAQEABj8C/wCcmyVUMK2FsLYV7Cr2n/4HRatJ/wCFxVzRqL2hXVC0XVWk3vqjbytLRCwzLzRafSI/yveF3Jq2Zj9q93P+B/2sJR9q97k8wtDpEZ+7NwortIKhu72v0QqC3KlkaweKpBG6Q8TcFc8Rj9oVZJHO5nUezle3kVp5Mo8QqTNdEfyFlRva8eBtvXzN7zyWXqrrzbWaQA8N6Lejjqm8d6ynuLjxOuyonuYfBBvSmZQ+ZuKyoZA4W5TLisl1x7woMOKoLC97g1o3lGPod37yi57i4nef0WXE8td4IR9L0XfPuVQaiy/FZL+7v2qgsypDfubvK0zRm5o1rWO2iwOOpyTpxfKushdUf4soVknDd3ZkjDeVQWU2pTg1GSV2U460Fw0I7yj5BqusiPMcVlsucNpvCyhWQ7urIaqCy6+V2yEZJHZTjidc1p23XuR8o1YliNCP5XWMuPabws8VQ4905RxNhlfj2RxKdLIauOuy3DQjvPOw+UawSs+o4pssZq02dY3690V7IsL3GjReUX9gXMGuoms7ZvdzsPlGtyHn2T8fDxtpuOHc1AgLP6OM+L/+tf1rhoRX/W0+Ua7+nkOnHh4izxHc2VuFj5juw5pz3mrnGp11Bimx9rF3O0+Ua5kzMWlNlZsuFbKbj3O3ozTcy889f1zhoRf5zD5Rr39FccNJtmVvHcjW2Pldg0VTpHYuNdcGi8lMi34u55h8o18c3A38lUYFURbw7jc6xsIxkP8AGvPSHDRjw55p8o/QMrizRNnPuOvGzI3RimuDWipNwTIRux55p8o/QSwfMMoWNdw7jAslk+ZxOuPSXDRj2eecfKP0EJ4mlh7iAsmfwYdc1jRUuNAmQt3C/nnZUkLHHiQvhovSvhovSvhovSvhovSvhovSh0eCNjcjaIG/VNdwNUDxRHcTR42TeN2uPSnC5lzeesfM7shOe41LjU6uF3FgsI7hZY7zDWtjYKucaBMhb2RrB0VpuZe7nrIPJY7n3Cyz7xrXdLeLhc3WPmd2QnPcalxqdZB5bHc+4WWP8HDWNiZtONEyFmDRrB0VpuZe7nrYB+yx3PuFpHGyflXWO6W8eDNY+Z3ZCc9xqXGp1sTeDAiq9wg2SM+ZpGrvTImdZRopsr+56V/c9K/uelf3PSv7npTjDlaONRnDorTcy93PWxs+ZwFhPcbbJo+Dv0M/MZr5ndkJz3GpcanWx/t0rLu4y3gbGy7pG/oZ+YzR0VpuZe7nrpZz5RY1vcZHGwvGMZyv0M/MZj5ndkJz3GpcanXRs30qbD4dxh9ha7AiikhPZP6CfmMwdFabmXu565jOyNJ1hKrx7kpwsb0to/a79BPzFr5ndkJz3GpcanXGdw0pf8WBnHuXwNjon7LhRPhfi06+fmLR0VpuZe7nrmx9nF3JADAWF/c1+Is/qIx7SPHxGvn5ix8zuyE57jUuNTrtIe1fe6zJGJ7nruONvWxj2T/4Oun5iwdFabmXu567+rlGiNgcbKlZZ7o6t30sdFIKtcsh17Tsu462fmE+Z3ZCc9xqXGp1tXXQt2j/APiDWigGFmQ3Df3TUYrx32GKQcjwXVyDkeOsn5hDorTcy93PW0F0Y2nIRRto0WZLdruvLaqiwxyjkeCo+9h2XavpczuzROe41LjU6zKOhCMXcUI4m5LRZ4rKOJ7sy2KosMcjQ5p3FGTo9ZIuG8aoxdkmuroEJel3N3MQa0AAbrPFZTse7spipgbS+P2Un8FUmZTx3fotBtGfMcFlUy5PmNuS29yq6894VGKpJ+VUWZL2hw4FF3R3dU7huXtIjk/MLxrqiPIb8zrllS+2d44KgFBZUlUZcO9KsN3BUdonM0oQDxbcvYT/AEcF7rL8pWnC9vNudoQyO+1XsEfmKrPMT4NXs4W14m85lGaRVXnvfRKo8UVxzdKJh5tV/RovSvhovwrujRelaMbByGbeVoNWme+7rljVaTFvCplBYjMxC2grqlaLFe6ivv8A/gcLNoraKvcbMP8Ai1otV7gF7xe8VzgVe3OxWKxWKxWP6fFY52NuObj+j0bhxVcTn3hcW21efosFsBbAWwFsBbIV1QrzUaz5V7xba0sOOZktxWm5YLBaDqLJdjZwat5WwFgFgFshXVC0TVXjJV5JWyFvCrWo/QfsVBZlyvDB4qkMbpPHBaMUYV8cRVJoS3xbeqwyB1uW3DeE3UkasvOZRU4WmQ78M3LG5AcVS3aH5W2386ghU12QFQWdXHR83+FlyvLjaekdnKybA+Nxa4bwhD0mgfudxtc+t26yDJcW44Fe9f6l71/qXvX+pe9f6l71/qUBJqciy5zltuWi8rir7lRgqr30W25bblc8oNrWxzGNjbQ0wXWTOynZRsLmupXctxXV0vVLHlj3BjdFtCmPc9xZg6p3KoVEIncbC+J5Y7KF4WlK883LGzQme3kVSakrf5WXE7mN4sk8pXvX+pQlxJN/+TY7nri/jZRvvX7P/aLnGpNrWNFXONAoYW7n35n9NMfaN2TxGZ0f6qFjxlNLrwvhmL4Zi+GYvhmIMYKNGAztJoKoM+TzFfec51Dpv0WpsbNpxoE6N2LTQoNJ049E2NlrhYfMEEP/ABovSvhovSro+rPFqv0ozg5NlZ9RxCa9uDhUKTyGyH7v9jY7nraIBVT5d2DeWYelOFzbm80zz5jZWYtNUyVuDhW3o/1UHmzjBHE27eV7xreTV7/+AqdIja8cW3FCWJ1W29W0dZLw4LRc1g8AvfV+0L2jI3/wmSFuTlCtLJPMV1LI2OFa3r3MS9zHmdWDoxXfVO6S4XMuHNNnaLpMeaaCdGTROYfMEELZmn5aiyKu6oUnkNkP3f7Gx3PWtFkrhiRk5jY2bTjQJkLeyE1sTHPOXuXw0vpVJWOYfG0s+R1vR/qoPNndcZcgZNMFpOld9VoukaeayX3tOy7imsroSXGySUbWAXElB3SnuyvlbuWy8fcqwzHk5ADdZJ5iuuMxZfSlF8SfSviT6bZJj2RciTeSo499Ku5qRo2m6TbI5d9KHnafMEELZnHe2gsirvvUnkNkP3f7Gx3PWssb4yD/AAcx3S3DC5lpcbgE+Xd2eVs45W9H+tm278rbd+Vtu/KFXE6JzXnewghNPAoFOpucCmu4GqEsbqg5snmK+85sfRgf3OUbTst0jbJH2a1byUnRidrSbafMEEP/ACYvUviY/wArRcZD4BaWiwYNTYm4do8AgxuAFApPIbIfu/2NjuetZZX5Xg240TIWTXNHylCOOWrjhdZ1DTpSY8syd/iBb0f6qFrwHNLrwV8NF6V8NF6V8NF6VlRwsa7iBYY4R1rx+ArpAzyhfEvToZHhzXeFg5J0bxVrhQomhdFucsqGRzD4KnSY8r9zVWGQHw32yeYr7zmVKkm4m7knzuIq80HJbQ/K2h+UzpDSKtuKjmHZKDm4EVsPmFmyfwrmO/C0OjyH6Ks7hE38lZELacTvNknkNkP3f7Gx3PWtd42SRfM1UOIzIOaLjcAny7uzyzGVxdpG3o/1UHmzaMNHSHJQa0VcTcgekkvdwGC+GapJo4y1zfGwcrKFVa3qncWoup1kfzNQfG4tcN4WWdttzrJPMV95zHAbUmiM/qztR3fSw+YIIZ0nkNkP3f7Gx3PXA2de0aEn8HMg5rqGnSkx5Zgb2G3uzOj/AFUHmsNDRXuJusgO6pUBdhlWz8rByzZWM2aqcbrrJm/vKkj3tdXMEQwjH8oFwq2MVK9zH6V7mP0r3MfpXuY/SnZIo1+kEGHZk0bD5gghZtVVwJVwpZJ5DZD93+xsdz1xYd+FjopBVrlkvvadl3G2FxuAKfLu7PK0RRNqf8IRsx7R45nR/qoPNa3xscxu23SaqG4hBszBLTfgV8O/8p8DYC3K3l1g5IujdkvJABVJY2yeOCv6O/1KkMGSeLii95q5xvRfIKPkvp4Wf1AGhJjzXWRG/f4rS6MK+DlSJjYvHFN6U7/15RTpHYuNV1pxkP8AFmKxsEwxjP8ACDhiDVRzDtBHzBBBOKwtCk8hsh+7/Y2O566oxXjvsMcrQ5pRd0U9Y35d6yZGlp8RbRoJPgg6b2TPHFZELacTvNlSi5xxsZWQsyPBMm68uyDWmTYBxKB4KtmU4ZD/AJmr2c7DzC97EtLpDfoFpzvdyFFRBktbrxQr2XSB9wW3F+VpzRjkg81lfxdaY5GhzTuVYJqDg4L3sS9tP9Ghf0cTzGz8r4k+lNjbg0Usc4oOFj4nYOFF8SfSup6zLFai5dSX5N9ar4k+mx2YCnM4ii+JPpTIA7Kya3/Ww89flNxVMHW0kY1w8Qr+jN+hIXw4/JXs42s5C29ZT0HDcqjMFMBZSlWq46y9XOGoyBibck4jP6sfXMyDiMym8/oajFaQygsaLEW4rFaAoquvNtWmi2qrEBaTzmVaaLEFbC92thbltrGq2F7te7W4LTNbLnK8Ar3auAC3Lcr3nNuetyxotqq3K95zrnrcttVN5/S7RW0Vf/z+/8QALBABAAIABAMHBQEBAQAAAAAAAQARITFBURBhcSAwUIGRofBAwdHh8bGAYP/aAAgBAQABPyH/ALhQawObAazCsU6Qw4pzM5mczAbkuFgOkTrF6wR8cUJrMM8Buw01ygqKK5sLoHl20HMuZ6PKKvE8mN/ohmr+sylgj4uoZzJTyIxb5Gsx4u7vYJshusaobtjinviCcOgH54ZGseuH5mv+rJmd7UggsROxjeJuRH9qCsxswR8UIzmJt91lQePXDCXPwANZbG0vvS5H573DN9dZTi6CfUlNuDDnfm7iLgp3JjXmbQDB8RUDGUZtryjN3H2UAcV5SgHc4v8AEQLuaW98NKdVU9KavRN6TVmdTjiW8jeKUYDfhxC2Dl85xUHgEILUoJSCmSWPkTP6Elr9EdJtVKomUDN12hMyYia8CdjJnpSd4gWeGELZt4+8qRRwzJ+VC9Vztj897lKgbXp3JlHXbl0g8rZmq2eDcbhjW3mis8KWi46RMAR0HCoKP+5jx/Yd7jCeduh3eTlPcyHOWJ1BmuHpKdp6eXeGPhJPMfaCeFUaE/ax3C7TvTFoleK9f27zep5RoNmB8Bw1FwGrIYjFdMeECkR+D41mSJaXPpy76ruefaDvtujhlpjaUZj6cuCjqHshWngyouNd/bwNUWx0JisOmTvgoBa5QUz/AF3f7TM3XMgRLGyJZTAWe9B4LVqHAm6uvDFOYT279na9Zo+h3e3Cxvxw4Y6bhKDwRaJZrk9eGiTwb6CYwQDn3xMrTQSg+PF5vodtRmK3NSPZYBwSzmSHgdvK3DFxeH3sNfrv7O9iHPT9HvM29LqcLqTFuUT4H5tx4ZsDUWW2LvhBsUG8MOmzdZ/R7ImXntUJtYWMJ1qRtnNV4E5Q4RlgPCyGp6Ph3/3gt+v0u8SL9uy9uAxKwMPAbFmKilXwuA4Hz5vfWTHRuzPwFvfV9LuxHAeof3hkJmis+AqlMSroi0Wxmf2nfbTxzfr9NvHHC354cM51WMdjwHMdWoKBtOYs9u+qDIHOc56b6ntafnprP5Ofyc/k5/Jz+TlanWWWtO6QfM/QyidFwHtSPB4Ccbrg6QHqe++TUr7zlrBu6EuDInPu/lTqC0bzCtya8B95wqLcffvawABMovEd3V+oyoWPk4e4eA+84Zvev3IH1e85awbuhLgyJz7z43Ph7h4D7zhctz794MliE04F15/U5UOlzh7h4DbNnBTtvab7yzIH7nvOWsG7oS4Mic+95bz2mFjaWWs18BwM2m4rDvPgaESmnuqUtRqwQjWfDPj/AGnx/tPj/afH+0+P9pgvGGC+jyoMD+wgoBpMKrogoeAi1EoW2uGyC10zPofntns8tYN3QlwZE597yPdeXBo7ZtQ0fARaI+AKBNR1Ph9D89s/R5UMI23+z9uD6vcNeAnKdHOFOLrOmv0Pz2z2OWsG7oS4Mic++uMp+beGJ9HgeEtGCJZlAmtyOUzaaTmafQfPbP0WVC0i18g4GjoRrPNX4HfkxTnh4XZK/S/QfPbPHlrBu6EuDInPvsDLK5aeFgs1jKk8EVLyXgXl2kDjIXuaPf8Az2z9DlQx+1xdoEOgoItFy7GWR4LlWcTpp4Z1QwHxw7/57Z4ctYN3QlwZE596CoBa5QjfYDY4KB/wymPBlSO1BiWRxKYr42wr0u++e2eH+5Ud8ocX4mrfgTJQQK8vp4OSjLlmJwVw5SRdditp3vz2zOWsG7oS4Mic+9qUo6nJArHoGhwxGwQFB4Q7pjJg0LhycMKE9RbkZ4LTyPefPbPfZUMQjejyOcA0fA4UbsXtOoeFEyxNN56mDbhf3NDNbkrtpEwf33eq0obtNEuDInPvD9qPwCEMyYcN5PImI+Folk9XBvPUgbcM3G0K1Zh+G+6DC0Vm73YQBVyCLjc7VesLG1AMDhvJ5EzHrw1LJZin/Yhcp044K11D1CWujQ4rz+iN8+w/2hoN2eXTbjbH9iJd3U8QLQbiL1YaQFhZwWsOYWSybc4/rElQO+SrUvJSpWnZR8oSAGQcKQgmBDvwTd8SBpOAAd9Q4uJTL9Z85M1+C1JkVW90QrrQdkFaC4/6Ypjh2/4ZScite7KmoP7DxUC1qXKP8JipcoYw8VOxIanNmBYl76QOyew45z20xn24eBcrHlntMp2ckyNYZ5su3g7GULwPGc4IF21cpeR58LFvlDDux5SmLp/e4qGbU/vRBTKjRgTap/pTOUNiXLxOcyQ8eQ6RXSLhhpAnWf15dKQdYSDogekAP+D7JZ/4ZamvzUNbsLUDkPSch6RJAbF6GpMKcGCPFBmwWiclOSnJTkpyUXkwb72yWdpLNiUKgbJ4rUR1iOiMiS9EXrBHgPNnLROsEfoBNsMBCUwcx7aN4m5Gr87aWgZ1yD2Tkl5nvftAAAWKxDsxq7FzjpfdZcLdiYuoJyHpDY+kV4b2IQs4vXEUfEjyJcMfVlww9GINryMEzoQbJjd86GHdhz4B/On8yYl40VeIdmXrX2Y9VHdlPGevAnHqx5zB32cxDvisZe3J7wiCg4It3VH1FuwRLA+dsG4T0T7x05vKTnS5qeXBLKZtGCkFIYvc9EoKLZzpTfsWTmTnQxYyzrGjsGjyZgt81cLtm4HZMDmf5lGOapUjTinmMDZJBjl2+dhE4mZh31jbrCLIOBjcDLTriZ7306cbYwJPNq+GWhRKYia8Ms69ngllMzYowbcMRex4G0/op/RT+in9FP6KIoQWsSypb0jaUkAzXONpwJtAYY3OWLfNDK24JWVJIovc5pia8ANLhxODMkRrqsOFRI2JXtOgw5cNphGNDhmx2AsNZcf1COKIBLHKEqyZoEMHCoBCzGolfXximafOCmSxm+tMLBq7w9Ux/qzfc4NHMH7TP6KPEWNW3he4d7Ysx5m+A2JlDaFgKtXXjUGAOc0XK27Tb2GxCGJ8r7HwekPPRJrP58/nz+fP58K+Wg0O05cCpAHb+O37MYl0XvwvNXuGb6QFrFAWaYExdvRNOBh0c5vx3i60HRkbINT6GMzZFqA1XcI9mLU4P2iJXZE5M+E2exx7h3qcDNwlGaEQiaDFiAXHRsMux8PvLPZf8ew3lVkyUeOPwenbNFJA353yiGHQEUvF1kH1BgASb1OTxe0LMuHUxxyN+ePX60GMF6WjXgHEyvh8dvMWgLWvGfOY0Ga846Xc43F4vzTLIfNfr/ZlKVdCYS3rGnZ37ye24h3dPlJjwT+RWfCbPY49w703+/BHlUHnh2ACsATKRovd1YdkhQ3hTwYBeCwNcUTcXDo48fg9OB2bks3JZuSzfgB4FILLBsU6D7Sj6WcUFIZcyhYYuvno8NJF5rFvqv8ANZboReQeaJKOaJqgi8R06kDLQo4fHby9AvRfKfL/AJgA5PzrBQbHD7wCdIvSu3mwq3/aSsVh5hBQRpIF5j8iz7G/eT23F46U5y4cE1S/rZ8Js9jj3DvfecEA2XYMjL12rxUGhaxG5mhsMuKXp4/94/B6RKsUexCEDALWeyzTELzr7xQcwYuaEYBdx0mBN1eiDqN5js9n47ftR8WtvvKkWnknGoil5pMmIeYZ9jfuIMNLZM68u8ebXPvMDU0/pzecDFxXAH6jBynwmz2OPcO995wdR/QPvxII0Li7TJQ7c55S+b6F8eFb/m3YuaF+D14/B6StaAGDP5Sfyk/lJhX6sG8MgClv+0faPYfvAG/84WbqbNzL6z26YdACWQpwT/dp1XAzlWc9B9JaM65B5cfjt+zBOlAWsRLL8ZBeMYOj98XOY0XDdHL5zmZSa8zWItZg8uzt2ZPooxXmUgrVQIYcrU9zh8Js9jj3DvbGNVwb9oHXSM5UlJ2Pm8mKDQtYz8zQ2GXYQZr379cfg9O0eWkhNDWIsohuxc7zah+YGV7rDPMJTrOZfWe3cAQBHMZbMfo+kHwR5HUiFAsSVVI1Zvvw+O37MXMr9l7cLd2cxnMZbu8KhbX8XHfvIWUZSjbs/CbPY49w720nSangmdu3sPzeTK3/ADbsXMa3y284AAGAcfg9OJ50KzEgogbngXll/kpuwc+PtH+ky+s9u7CCU4kA8BYDSy6nIc/94I9p/vLk6FyT9diyeWerP7QRWkkwvSfxE/iJ/ET+IgVkdAYc5YCht104795PbcBrp0T7L5Xp48Y7LuT4TZ7HHuHei6TRxi4Kawp5c4qJ6JH54uTYK7YMR+ZobDLjaiM3Qbsxos267HwenE8/qS7eh4GTadRNIGAu8xh5zBjhg/bwoAa0GMy+s9ujtAy0+VDgvZilDNchFgk3FeUbbeJ1ZckJZmaOHN+G0hK+QOQ2Zm68j/kZ+siLDh6isY+ltXnLYM95MvvwQzB5wTIPnwpJrur4RF6EHnMtk3z14b95PbTAi6JRsAaQx7CfCbPY49w77ZBiQaHLk4aFFGcxIsv5iwP0qiVY1wGtWQLYuD33ylDo/ocPQgbxXHhwOCedWVruAd2gL4Nr8yV0d0MDk8EjV6j13hMCc4lrEPN/E0r6rDTygIFA0KmFXVlFMxJht+ONmD+b8RTDeRYMIcsg6HHNtmo06u1ecxtDq/iBd3nxWw5vZmS7ny/5gyUQeXALVV4YzZ/J4ZiPU+X/ADFxUkjSuUcMKKC8oEOT86wUDaILnSChwNqYVVZMYKut1ny/5gspzhV2n78MyZK7/KOJiTmHHkmK6P38AZMVs89v9ZWvLjjixjobz0dG0oNmhN7OxRsUQay5LD6S2EneXJARulPXuKrt+1KglgQsj97tkjExgYPCxISJiYX2CbkglH9AGg3EwjmGsza3nB/ycUMEes3O7EwmnuzNXUgVAJTGwcGK9YiauoCU6YQSjgAplDYXKYYcwkrMQvWch6w2PrBXInSWY3IDqvUSsxC9ZyHrOQ9YpaBgm1ingVMBuNmWUzkPXgWfKS0qx5QYqLGc3jiOTEylwnzkDqvQRX+4S0qx5QFVadU7GIZMTKXCfGQRtUzn1PokGZwRvswn9ef14XWlZpkAZd7RKJR2KJRKO1R/3D//2gAMAwEAAgADAAAAEAAAAAAAAAAAAAAAAAAAAAAAAAAAAAAAAAAAAAAAAAAAAAAAAAAAAAAAAAAAAAAAAAAAAAAAAAAAAAAAAAAAAAAAAAAAAAAAAAAAAAAAAAAAAAAAAAAAAAAAAAAAAAAAABAKHPLBDBCAAAAAAAAAAAAAAAAAAAAAAAAAABCHOKcwQx+bbIAAAAAAAAAAAAAAAAAAAAAAAAAPNIIwgggggo+pOAAAAAAAAAAAAAAAAAAAAAAEJM4QgggggAgggpd4CAAAAAAAAAAAAAAAAAAABPPwQggggg6wggggo5iAAAAAAAAAAAAAAAAAAAHLIwgggggp6AggggghmIAAAAAAAAAAAAAAAAAANCwggggghH6AgggggkPWAAAAAAAAAAAAAAAAAFLwwgggggnvKAgggggggCCAAAAAAAAAAAAAAAABMQgggggkHvKAggggggleCAAAAAAAAAAAAAAAABCwgggggpfPPjTQggggk5oAAAAAAAAAAAAAAAAPCggggghn/PPPO4Qggggn6AAAAAAAAAAAAAAAAPCAggggjvPPPPMQgggggmCAAAAAAAAAAAAAAAAMOAggggsc81PO4Qggggk2CAAAAAAAAAAAAAAAAHPggggggggl/MQgggggl7IAAAAAAAAAAAAAAAAAHQAggggggl+4QgggggtSAAAAAAAAAAAAAAAAAEMPAggggggl8QgggggmSCAAAAAAAAAAAAAAAAAAMFKggggggkoQggggh1XAAAAAAAAAAAAAAAAAAAAKN7Qggggmgggggg57AAAAAAAAAAAAAAAAAAAAAEKJaAAggoQggglLfGAAAAAAAAAAAAAAAAAAAAAAAMPP5ggAhgTvcKIAAAAAAAAAAAAAAAAAAAAAAAAAEIFOHPV+NPEAAAAAAAAAAAAAAAAAAAAAAAAAAAAAAIAMAMAAAAAAAAAAAAAAAAAAAAAAAAAAAAAAAAAAAAAAAAAAAAAAAAAAAAAAAAAAABANOCABBDCBAAAAABDAAAAABBDABBAAAAAAAAAPOP8AX9AwwxwiAwAwCSxgCzzjDzzQxwgAAAAAAARkMICWfwQEE7zyjzzyqxx063SxV/0t4gAAAAACzMMuglbxbzj7n3vBFSrJ2aZ3yv24Cv2gAAAAADwMfHsFLxYwv7Pg/Hrynzx/CHXpV46v2gAAAAABT4NWEMvxbjwY6Ly1XeTytw+lau3Div2gAAAAACCaloFvrx2zyig74GrxJAt6j/S2ljSL+gAAAAABBjz1jDSDTiTDzTTzxTDjziDTDzgBDywgAAAAAAABAACAAAAAADCADDABDAAAAAAAAAAAAAAAAAAAAAAAAAAAAAAAAAAAAAAAAAAAAAAAAAAAAAAAAAAAAAAAAAAAAAAAAAAAAAAAAAAAAAAAAAAAAAAAAAAAAAAAAAAAAAAAAAAAAAAAAAAAAAAAAAD/xAArEQEAAAQCCgMBAQEBAAAAAAABABEhMUFxECBRYYGRobHB0UDh8DDxcFD/2gAIAQMBAT8Q/wCT25HZjyvFBXNT3Fq3N8kO2OUX4XB9w3rfD7imVODrbrACamfNucYGLE64Nfn6hVZuvPSm7DlEjzLB9cecFflTKt0Ge/dzh3NLjrIYkA6zfHPVSPMGXqASTHH5FZauhtz2c4RKtXWucrFisQ6OtdyrmzefqwYSY/G4XBtcIeKa68ld6GWL4i3k868lm0fw9fGrxg8cfWvdhX/WCzoEot5POuAaSQAsb54/EPZR1w6wiVvrzw60GWPN7aLeTz/CQ/Gp5/bviSrxdD7TXx2uhiwZGQEjRbyef4Zhy4NPiTtlm5v1rzYa0GX26TZCcbnyI3PkQPAVGhb7e2qlTIl+0fDdOTu6xExvuMYAlIKaqFpBVjHctlhrKa7nb4cvbB3dafHscvv1rSZa1OX29tfd8Hb4dF7zyedY0ADd9x+B9x+B9xcUZ900IWkFWMdy2WGtvrQ6/Ek0vUcPqf8AHv8Au6JMtanL7e2vVFjPi0PiIJJhMHuZNvX8O/7sIWkFWMdy2WGvLSxeGHvj8WhHlMff8O/7sSZa1OX29tdiBjPrjASofGVh8T6cOWuzUgFebGO5bLDWEnNYEX8Xa/HfnMbwqqdm5960/NZlym7usEOaxtA7vg3d/kgESZE6f6bnww9KSYOoplPVVJN6+NvaJQ64uL8yRm9+cJfhvs9RdFyr2hWQlpvo8GK9KebyPcSsN8+rd4t/4FEE4UuORFvDh/woVSRDcq8hetoTlTmMBFmbvi7z+qlSCK1SwH67AKkRK3eQubE2FMTB/bYF2Ho7NARpTRzCNx5vqNx5vqEduActd2SSaYXMNNjMThdVnVuneUWSRPRLipSd2BicvWA7dsZnEfUTUMr2/fEs3B8Qps/gP4tJ2u9jzopp7cOV+UMV0kWGEZEmGYsJ8T67aPy5RPRKCvNluMLEznn/AMgBVJyrcc8T/YtIifKAZyNjKWbd/UhqlzOjBQCmwZLHstPfBtHOBaJmK1ORbr2iRRt5v8pE5lqnn9v0WsndiyNzZM+UWK03cjpHxH6Gw/iEr2HmCsLdYqlV/SIwwDrgQoWas2Asjf2dCmN0cwjdesCsRDjFOA/WgzJHL3BsJQGe2bCTOxIp325jTE2xRK+xo/stHTPc0ussZ9jn5jeRYMU+K/LxAiTIoGTuxQkHrAkrFsJHFfcCs073qOkfEfobD+KithyfT30fubYkC0qc8OR30LMFLHn1z0fly0kVkJMpym9YJh4k3mwOkHASxYsRKhG+A1gWUtjejF3KzwZQxVufuWifS9Bx+pxJKVOVpzjcOX3ApSpytKKqvQ8LdItZO7App6R8R+hsP4ugmMOh3OJ77wyJVDLJhtWVnAw+65HmAoSC2jEKqczCU8dIJ6aS2/cDyiyzdYGVRSqKcIQaSJEWavJ6wdmkNsqcCLfYhxis5TkjugDmmHB1vAU+BWpmvAHYHXHroNrE64dYJ5JbS5xghOEguG3awW0u06U51DZti+KAcw/nanMDDEwMgP8Am/8A/8QAJREBAAIBBAICAgMBAAAAAAAAAQARMRAgIUEwQFFhcaFQcMHw/9oACAECAQE/EP6nx6Iyw7XSZfCzrLlV7qnEyXL4M6TmOXttzcQBRu6O0OZmKVPsWrcTG4mUZV3GLMxK4fWaggCjfzV8F0fW5F73myiVb4JLKZfeopoxvua+K4T1Fid4soqtvirA9Q8nfc061FMT7J9kZW3JTXsltC227QVogluZPTXPdxDrdc263q0+nmNy+tC40BWiCW5cPqUnhyaXNut9Nfn1ad8GSArRBLe4n49XlmHwZJc263/nPXq2zvKsIJbgC2NY+uKNkIU53XI63ALYi+vZOJ0yIlnh/MRS33MynxJhGCONXIYPHM4fH8CNT7opy/0UF4iuoh1ETh9WvKyohHGdK9wSmPU6UCs+ufXFau+wBqiAhJZB0Jzn0TgklzjEPDM/58OXRwDuAcmDeJbof66o/DOmv1p1CqJS7TASMR+Of886WrB+JicpsVqVo4s/e8cHIYpCABRM+iq0+iMCo7UHyxoFQwiVM2bVwdypgd632zlL5lzjExZ+94aFXemX8Sgvp0dP9dTykSu4y26KWMW0DcJz008OipX4hUVLz722LP3vCNckAVlBYQAUQ2uTFVt0sp51AdETkgFKIA4SuaBYdlEQ90sVZZaKaCinmUdbBG0QpPGYjFsv9b//xAAsEAEAAQMBBgYDAQEBAQAAAAABEQAhMUEQUWFxgZEgMKGxwfBQ0fFA4YBg/9oACAEBAAE/EP8A3DkhQ9nvR7Eo3UpJjCO9TRFibV/bK/tlf2ygwYsWJq1bZVVmSTvoex71hE/OCSoVYIruKUicRhKblQlww0OLa2HpSwQspQAIADceICAG5KQGMxQ6VDM4KeRjQ371JgpuElC2aAkfy5soKFk1oJrl5jKmYUs5XwLSzIg9aXBWQV2JpsDDfPeKbA2/5Jq5HVrQDifxHSELPrWpWEGgHss0cUMIybUEhBKURxbFegbYVDFHIQ0RI/k1gpPMncVdMcGhVtvet12r4UtCLyMvSollY/rOxSiVxAe6Wmytr7g+QZXmhDtMVGPcntJ6jUkisou8y52oAoYIPTG0pMOLSUrJQyS/NR1D8jOlFJUhlpTmPbg6bZbET27Hu2pld2ICe3RPOlKLKadXznphly57+tOAY4AOLg9IoLpgUcFLmxBIQR0au9Vuj9Kn/PR1oBI/jn6BFLFXf8irbYsq5dluzpA50kpduBzsc3tSgqlhHFf8WB2sR5O84NSCSA45PVxLcqEQMlIN47BEIwOSr9vTFTgn8YhSIpmqrunoKEDDQNjKcDPu8DQ4tIWSiuu73F8wFYCWmbRQa5vYR5KfI61xvR4YqzobBuho7DChI4lRykf8aAkfxRMnFT6Lv+BUERbN8yHj2z3pbl3XA0A0Dd5uDxzlpPWb8hr7zc+UuVWOmw+dKPhADv8AuNzsW80MrfX6q4pAk/ENiiZV4U0b6nSQyuV2X2cv4+I9aadJGVf15oQBVYA1oyuA2si3QW7199ufLWuj1AGo06JDU8nxHR2XCbFb6ETXwj+IdJvpQp6zfBobGINaX0jlqu6nBzy6DQGgedjTchb9kT02ffbnzF1uSeLXw6UE2SN61W5HYfJxic0ItMn4YHWlOAFdddh240oAy0+2cQ6uXi5fOUkgAZWiJgT6oY6EHTZ99ufNAJiCtsYPZ4cqJkQkRslAgCNkayZMvxSkk/Ctnng40QGiVvdiNjkKZ1+R6efosCktp+meht++3PnJGoyL4DrhyjY7DXirUz+EJVp7ns7CJ9YXc1u5S5WE6pl85BZQC6tgpDiCJrk7Y6bfvtz5z1AClbWOCURNs8Exz2OZb/s0pJ/BzubxagKwz+92JK5wjZKx09z5+NVSFmw6Z7eD77c+ekg5x1trkw9XZFSoR4a0Ijk/BhNuMrJsUAABAYp/w45QWOrBS1F271nznxjmylgKKAjB8V+nI8H32589zUFE1LDstG6IBhEkaI4RC9KSZF34Jw2pzsN532WX5xHivq+eu7a0smOy/NPD99uf8ENlTI33ncbLWgBmctXE/geQVJcBK+d2xp8OHF+wOnnPGBDlGAo7RivWuu9uQeH77c/4EtUBxYfQdtkJIMKzgamHD8DC5iSK0bG9EqQBK0pMpHJUekeddjzRZDPR6p4vvtz/AIFszps/JNkeMCfKpbw/AglEDUc6AnACo8YRnjKPXzkBCBqmCgQHEma/UfEgRwUEGCUr6D8V9B+K+g/FfQfivoPxV3SEgFpG49/KcuBTxko8AEdSac5BZipCnFvwOrIGeWxXjD2ZPOunyTGWX6D38xyCEWc9uoxSplA1TL5bssqHnGr3xBKGQTy33/A+se2xinOer4815gYaqxQyEQg4/UZ8y7Vj2yyx0PfzGSZYOynxs+23/gfWPbYWzi56+bcxlnMvByLdXzHIIRZz26jFKmUDVMvmFJPuWz7bf+BNzi9tjmfwXz5jqyTxXPIzRPAWe9quKy+Zdqx7ZZY6Hv5rrZn73+dg+tr+BTlAJOyKSUz0Ph5mP2cxrp+3fzFBIRbXt1GKVMoGqZfML4q1sKfMNNygSVImUK/gZgFnDferWxAaN8mA5qCkQIRhPKLJFQAmDVih7Fsbxld5b9a+80+80+80+80+804nMAIpF3d4rtePbLLHQ9/NJKXugKDEgBWvY2qVb7/gbfyFqnDBl2LDx1efYT/NMUAhFnPbqMUqZQNUy+bexPaS3qmwdgQ5iahvD8DyYq+iJjOZ2WygSjhvp/mTLpWPbLLHQ9/O36JKbBAROVmoA4fgRKKVptPM7tlolIM6fSz0/wAsxQSEWc9uoxSplA1TL53V7fzvax02YDYhZzRY/BB05zyom0okaMq0WqIfei7ZSPMXUh/yTLtePbLLHQ9/Od/4K54ebB1oAILFMSAzTh7hfgzSJtUahNM9tjzREhNNb1O3+OYoJCLa9uoxSplA1TL5zzgBmXD5MvbZJIZQ4FEIYPwaSI0/7jNHZMPkd06nEzT5hwhbSOCQ/wCKZdrw7ZZY6Hv5wnAsXQb9XBzoIphiwBAUCLAS0x/KHcFFj8JONguO5oAK5/12bqAy+Z5uXKf8MxQCEWc9uoxSplA1TL5rtkQAlXdQggR9f1fedifhoU01UZBp+FSRGsmTB80gEEcJQEARsjrSMp7BZrvK5O2n+CZdrx7ZSx0Pfzk01Vw+0048th1ASrWsKwd1Cx+GAqZKZ9+sZN2wxkqsm5NyZGj3kIFv3mp50xQSEWc9uoxSplA1TL5sfGnDP3HXcUN2pUAYDZCSHvjLuo2UQfiBRG7CrYRxxN+yS/cM4dPs0/3JNzo+5p5sy7XHG2WWOg+vmnwGTFh6iqB0oMu9XVd+xuC+Lw30UrdXV1fxKCQ1vAXuN1GHvhMrZOl72GmTf709SrRvc7uDy1IIWznDqMUqZQNUy+YZd4Bf3LxwUXWI1G9XVd+zkmHrTZtpZot+KBBK/XzFGnvhMrYPgYJI/p40mYJASfE0cS++mzD5MTMW0BCeUvfy1wtAJV3BVrSJEfHOGeVF0BCgNA2YTiHlpA/HacCgAg/GAglSvmyhjmpwo11ry2qZHN98DXietM2Vjt38G/8AiYHkt0OW9wKFhHZJXD/XHaCJBkxzVeO+tAAg/HIJDV9EsWGgrmQCe9FgJhNhqLglDiNOoi91nhr6uVLjjDJ1MdY80FQBVwFN8rAN4N3oUw9dRIOGvrQFggEAcDYtAtWn1hsvLyqUNzK5aLfkUImauAQ3WGhBO5weTQiSInDYBAEbI6111qfpZ6lXbPp9x2ptQPQ+mz6UwRmYD2pEYRHc+CZJbgmjBOasO8RUMg6Ie0mpg/WL9R9ChFok/oOm1kIGVaKm7ww61NrfJoOlQYB+UQc08Bod73lH1HBekGPwfAAQBNzUhOOvuBS8reR8UCze5adlr66V9RU3FABBY8B08zam2ZgOCmcTyVIEBRb8ug0OgNFW/pRROjGgcVpCYnM0+D0BwoIqsE1/IUIkiJvNgEgN61/IUgJ8iam0tohNS4oJZcNJPfCEYost1FTRkAUW/ORWSFZs9quEB4FJmz3pABjAOv7epp2yKo+j3r9KVjT2rCB/4Ok31xCuIUJv/wDhQErVjQu4o3/owFOwvSLztWs8uzcSKV5gEaRk3g5oyRnbiwrK9yv6Ff2q/tV/aoT9lYd70As+ZJvriFcQoZx4cSFZkd6wI71iRo2AJWKzZ71nO5QdfSluXtX7ArDnvWERpQLtYFOtXI9SsGaAsz/gSpEUmblXjpRrC3u38cSYeA0qS50Z5qGCZobN1YDWgk/v+ym112a/m1/Nr+bX82g8duliakzgoDY4ajnQiNfKFTnwEtXxEtN3YsDd6wO6wYKApJtjlLgKeHmtspMU0iJigkzCIgKzKW8K9/guNI22CrDnNtTyqSjqDlV+fRoMg7Cv5SlGp11ijk1JnBR0PYtNccRSXpWrUmWFBfqp8jqBhUCme85oZlyec6SIpOKLdx0UFAUAbBw3c55GV5UD9YWfvK9iku6wH9yjzrQKyelNyh0YfeojoLLHOVzYCAI2RqVHA2McygQAxPkijBKRTCUWCpauAoXAoRw7UMpXCVwFLQMVCqWRd3gCWRiolzUlyqSjVcFJAykS0PCznuXjSxTBLnRFgAFtigSoFeu4Cm4Y4B+aQJQm88ZpkiEVKW1kbvN0pvgG7NCjqAII2BjqDy3j4VjRcuw3DActqBJApnSjkB32LAiWgqB0mSt38DsBAEbI0ptjcVnZbTlylxQ19t+a+2/NfbfmvtvzX235pA0KJV4tEqwkNPS0ySxX0ChkKV4yVDmnSu9KnpRyWUewgHWghuFhNudLP6K+gUeW8Ikq5hSVauyU1yDCE3Y03VdlLHsRBBsGvqTQaHYJpcaM0MCYohgALUoCrAUyuIDEM2OrL2p44i0bCwumelDAEKMI60C8hDTGFkcRpswyB1Isk0gRufkGlpS4ppaRcmgrsxCO01j3JAM4Cz1K0C4tV3D5xsYBBxG41fbfmrxkLJay7F9bXzRccFThuJOgbJEgKrx1XLTjTodPypyrtVMAGqYKMISKa79R2lmSzUsM+q4aO8ep4PQVhfrgRDZr++/df337r++/df337oUPsYGh4gSA1ShA1gDx/R79YvvjwexxfZuEDNxHoS9KgoyuKxTC93ojDVz4kjd1+1umyAzUgw02ffb2gCSRAnWs/st205VPHHg/FLjUuMHkyPajfxkJfcaPvUJMBLbWX3NcXbqBJ4axH22/zbJyoDfQloAIoYQlHQKXwvp3Luz18FzqWQyj0C3Xwu2HmoOYyPBLdacaeAUmOmNvoK/T/Z8U7290gmwj3p4lbvnTV4vCo9qfGWBQcYw+lWuaui6ho7dwqBP73AvypAbNgsdZV2+mHtRQ1ii7gx6UtxfcmIYnrs+j36y929yFrPCv6H70j4wM/vTJkIO3BsCGyrv2OlBLF5mSu9KAhS3SwXyR2atgO+2E397dfB99va9H969D9tp7ZETDQnbYmKVA8Fj08NYj7bf5pNEGduGxVEum9/BfAmksN6xRbEZQ43UZaeelVECfUr+oq/8AXFJiY2q2ZS0KHrO30Fdku77Nf3q/vV/eoRgDydhqDk+hb5gslR/eiJ6UWwzhmeIlTHkRwBkTRN1JLitbCtzhtydiiwS+5oHpnpSCRVVlD7rTDKkxI0YKvKKm4N4n1qFcFFZleOBwoeIIG4CNn0e/QG3nIwvM8a/gqSJ5DhS+8wE8ti1koh1bDvFI2CmqMvrSiA5G+49sdK3AKV77HUk600ZUiZEqIZCO6x6r9dv329r0f3r0P22ghAbo4B32H4QIncqekeGsR9tv831j22E5QW4knx4NYKmMrFyLdXaf9d2ACVpr2/nBD567b7NnUt2+grGmGEYSv6n91/U/uv6n91izDVNPCcVghcyelGDgK8RmuCg9ylhCG8ST6lMTJCb5TROpKDxQaJ4fo9+sX3x4b3BkeYX1dq3GodsodWDrsQSEkabkmVlO1zpWgtJeEDmQ9Nv329pAiwAl604BQjyudBrbbj2VC3i7g9gpXJStkW814qnLgg2muvxxo/ZwaAg8NYj7bf5pucXtsFiZvlG0GOAFJBOaDABLkareWWsT4iyicpGmy1ZoW4Z7tu/gcxZ/QV9m30FZ3RyAIbJX1b4r6t8V9W+KBmSAIHJJsA6yFFNy6uXenpjgKOsmoSR4qO0UM8SitRskbq9Cr7TdQn3kaiVIUxmgNDfejW/7LY5jD1rTcr3dVnpFRs4l+5V9v0e/WL748ATFkYAy0tCui6Cw7BVvnrRMvdelfxVfxVWhnYVvLo0chgo5A6klFlILVEjs++3uz+qpaEeK+KNSTVJ3YKyzYsU6WO9CCNe4XetfFWI+23+bgQEvChEEZGhXi6ekJXcKSUgjIjCeD1+o/wCu7ABK0lbfzgh89fBcOsEuaTsNvoK/T/Z8Kpk414lZxi3WjLKLlGAoolCy/dJfmmoyTiq+9SslmKQXGd9ehV9pu2FjaASJxKyNFgbxx7RUZd4gqO4c7lWr7kI0Y7RAQLDgl++wwb93TIcPj8F/NWW8OfY99gZABwa/pV/SpchQ57M6J5byu/c6bPvt7Xo/vXAt04UBgHI8msR9tv8ANsUlC1byNBqbHq8RLah1z38Hr9VqzQNwz3bd/A+uch2g25lbvRNgIAwG30Ffp/s7EJoBJDmj662JDY8EwVzSHs0uIBLgLIeqeBd6FX2m7wIAEIRLJRGk4qIhyWrpOE0mRsFOEnrahH58hX7rwXtY4Ns3YQpPTJwsAnNnpX0P4r6H8V9D+K+h/FPINjAmwOo961BzMa33t12ffb2vR/evQ/alAVYDNRxeRrq2JjdCKGGwXXUmmbyC+GsR9tv802WpSP4a5v3bAk8cFoNyUyElI/4N42hrXbAGWmrb+cEPnrtZA+eoE0Ku9V6Q67y3GySYknds9BX6f7Oz6rfTERAvbBICDxE9Qp2qFBJEgD6NDFgAmhvyLxtRmScP1UfsCIsA4Dhvr0KvtN1ZFbUXS+i70IbanfiT0rCriB7UWmIOtoB70vrGaSksxIQIseLK9dk1aZAWIhHmA96AtFBzuhRQRG6guiqGHOj01sdqKqkLvFjuJTdknxS1bvj1L4PVLrsdhrcwp2GtxLZffuYXwvZlTYzC0DI0sBJQ0hZ0ZK++3tej+9eh+1aqjagtEt8VijRCg3V6b7eGsR9tv85StLJxqcMW+Jv2EPKE8cR0eJTJMkocEcehq2hhYvWpYlCSOjZ2PiKFE6FPwa7CQ4aOtDWLJdd612OnvoZVMKRxW3A2IsYJDicSMVDrCQFjaZ2DAEE6KYqSyHKklkZ2A0q8RyGPdxpM6LFfSaXArfLRUffTKVEFmYQ95o5ZACeFB3nxIInc9aAtGWD3/SiwE3w0C71yvqFPkGRE+/D3nacRILI/p4089mToAF+5WPzXw0KXlmHP03UHWpLMwF0y1/BUhrG+AilAVYCkLSgcIKZ6ZsK2hoRBGRxQsTyDSJr+Cpml0KXOTaZetX2CYsrRJUmeQ4Uv7MAmoiCYk76YbuNjrCYvU52G1CtG5CYgk+tfyVLWwE1oHspQFWAzRF6UB3385BIaLP77g1oEF342sky0A+tOTF3B2Chbybv7JUY9w13ztXIMbOafr9inmW8kaUVBPTaoEqAUCPVJhaVMtFJkS0615IifMUHWVa13pB5AVwnbRrRcFo9U0omsaGdG88cWLgrdFRm4bOJhURZFzJ4BoyFKKJfXz0Ehp+RLFhpmcWih+EyGKgIacWbVoF3IoJkkxlZoeemc9ZB311AIKVBM1PhzMDapwQxi1Te8cRUPujxNQlDY8Aad5em6KxwOIoCBmUhOxaW9de3CxoqUqQ4CxS8LnNQEDMpCdixWmGIcWlKTJ3Itu1IiK3lqvKMgu0vwPFo2LXLPmbzsqWUrUuKeKDZ0reoyt2i2zdowlmjQpgJNI2Fc6BbG5vViSfSqWUrUuKl8LMWqYcrK5fBugYSzRoUwEmorSijEKXAWKga95QAIP8IkINTMPan3CMI0s/Pom+fSWxZVrFntRMA8yK4BXAK4BUG7ZFcArgFcAoA08EG6uAVBuqDdUeODbH/tT//Z;" vertex="1" parent="1">
          <mxGeometry x="540" y="325" width="70" height="70" as="geometry" />
        </mxCell>
        <mxCell id="sNuDHfzyufjpb4VffAJZ-13" value="" style="shape=image;verticalLabelPosition=bottom;labelBackgroundColor=default;verticalAlign=top;aspect=fixed;imageAspect=0;image=data:image/png,iVBORw0KGgoAAAANSUhEUgAAARMAAAESCAYAAADe9TEdAAAgAElEQVR4Xu2dCfhV0/rHl5BEdKXJlOHKfCVJpMyESHRJVDJkTF0UylgUKpFCkykRZah0k2S6IWWeImRKXOGPiBT+97Pd0z2d9rDWPmufs8/a7/s8PXf47b2G71rnu9d6xzX++I8oEUFAEBAEikRgDSGTIhGU1wUBQcBDQMhENoIgIAhYQUDIxAqM0oggIAgImcgeEAQEASsICJlYgVEaEQQEASET2QOCgCBgBQEhEyswSiOCgCAgZCJ7QBAQBKwgIGRiBUZpRBAQBIRMZA8IAoKAFQSETKzAKI0IAoKAkInsAUFAELCCgJCJFRilEUFAEBAykT0gCAgCVhAQMrECozQiCAgCQiayBwQBQcAKAkImVmCURgQBQUDIJIN74Mcff1RfffWVWrx4sffvm2++UUuWLPH+c8WKFaGI1KhRQ9WqVUvVrl3b+7fhhhuqLbbYQq2//voZRFKmnI+AkImj++GXX35R77zzjvfv7bffVh988IH66KOP1GeffeYRiW2pV6+e2myzzVTDhg3VDjvsoJo1a6Z23nlnxf8vkg0EhEwcWedFixapGTNmqBdffFHNmTNHvfHGG2r58uVln12dOnXUHnvsoZo3b6723ntvteeee6pq1aqVfVwyAPsICJnYx7QkLf7666/qySefVJMnT1ZPPPGEev/990vSb7GdrL322h6hHH744erQQw9VjRs3LrZJeT8lCAiZpGQhdIfBiWPYsGFq/Pjxnp6j0oVr0JFHHqn+/ve/q/3331+ttdZalT6lzI5fyKQClh7F6NixY9Xo0aM9/YersvHGG6u2bduqjh07qhYtWrg6TWfnJWSS4qWFOG644QZ1//33q59++inFI7U/NJS4Xbt2VV26dPEsRiLpR0DIJIVr9MILL6gBAwaoRx99VGW9Rhpm6JNPPlldeumlqmbNmilcLRlSDgEhkxTthddee8370UydOjVFo0rHUNZbbz112mmnqfPOO09tvfXW6RiUjGIVBIRMyrwhfvvtNzVlyhR10003qWeeeSbzJ5Go5ahSpYqnsOW0gkWoatWqUa/I30uEgJBJiYD26wby4EuLhUbEHAGc5K6++mrVuXNn85flDesICJlYhzS6we+++0716tXLs85kXScSjVb0E02aNFE33nij5xgnUj4EhExKjP20adO8uz8eqyJ2ETjppJPUoEGDVN26de02LK1pISBkogVT8Q8tXbpUnX/++WrEiBHFNyYtBCLwl7/8RQ0cOFCdeuqpglKJERAyKQHgBNmhNHz33XdL0Jt0AQIHHnigGjVqlNpqq60EkBIhIGSSMNCYe9u0aaM+/fTThHuS5gsRIF3C8OHDPY9akeQREDJJEOO7775bnX322ZnzXk0Q0lhNn3DCCeqWW24Rp7dY6Om/JGSij5XRk3369FH9+/c3ekceTg6BBg0aqIkTJyosPyLJICBkkgCup59+umf2FUkXAuuuu6566KGHVKtWrdI1MEdGI2RieSGFSCwDark5CAVHNyxrInYREDKxiGf37t3V0KFDLbYoTSWBwBprrKGuvfZaz3FQxB4CQiaWsLzmmmu8ID2RykGgW7duXooHSchkZ82ETCzgiGLvuOOOE9d4C1iWuomjjjpK3Xfffap69eql7tq5/oRMilxSgvRIlJy15EVFwpaq11u2bOmlfZByHcUti5BJEfgRsEdy5Pnz5xfRiryaBgT4IJCMCnd8kXgICJnEw817q0OHDt4RWcQNBHbffXcv4/8GG2zgxoRKPAshk5iAjxs3ThGlKuIWAnLlib+eQiYxsPviiy/UjjvuqLjmiLiHACU3HnvsMcniZri0QiaGgPH40UcfrSZNmhTjTXmlUhBo3769XGENF0vIxBCwW2+91QveE3EfAQIEx4wZo/CaFYlGQMgkGqOVT1D4m3ouy5YtM3hLHq1kBCgKRjyPSDQCQibRGK18gi8VZTlFsoUAns39+vXL1qRjzFbIRBM0quvtsssu4uWqiZdLjxHLg46MbHkiwQgImWjuDgpr4zYvkk0EKFE6Z84c1bBhw2wCoDFrIRMNkBYsWOBtIgpmiWQXgV133VXNnj1bVatWLbsghMxcyERjW/Ts2dMroSAiCFx44YVe9nuR1REQMonYFStWrFD169dXX3/9tewfQUChP5k+fbo6+OCDBY0CBIRMIrbEP//5T3XEEUfIxhEEViKwySabKBTyNWvWFFTyEBAyidgOOKjhqCYiCOQjcMopp3gObSL/Q0DIJGI3oHh9//33Zc+UGYGNNtpIHX744V7Kh7/+9a+eV+r333+vFi5cqN566y31+OOPqw8//LBko+S6M2PGDK/Yl8ifCAiZhOyEL7/80tOXiJQPgfXWW0+dc8456rLLLotMXgSpUB+HekWlSFa13XbbqVdeeUWytP13ewiZhPxOpkyZokjrJ1IeBPj6T548WbVu3dpoAER1X3755d415I8//jB61/ThK6+8Ul1xxRWmrzn5vJBJyLLiQs2mFCkPAuBfTJLumTNnKnQbSZZm5eSEH1KdOnXKA1KKehUyCVkMicUp307dZpttvELvxWaO/+qrr7xazzibJSV9+/b1rmFZFyGTkB2w2267KQqPi5QeAUqH9O7d20rHS5cuVYcddph69tlnrbRX2Mhmm22miCgvlvgSGVwJGxUyCQG7Vq1a6ttvvy3hckhXOQSIg9ljjz2sAfLjjz96/kJJEcptt92mzjjjDGvjrcSGhEwCVu3nn38WLX0ZdzSWtLp161odAWk2OW1+/PHHVtulMU4nuBBkOW5HyCRgW+GzgD+DSHkQ4IeZBP4PPvig6tixo+JjYVuGDRvmmbGzKkImASuP/wClD0TKg8CQIUNUjx49EumcYL3Bgwdbb5vTCR+hqlWrWm+7EhoUMglYpWeeeUbtt99+lbCGTo4Rj9ennnpK/e1vf7M+vySvO0mSoHUgLDcoZBIAKKUOsACIlA8Bquv961//UjvttJP1QSQVwEnw32effRbprWt9QiloMPNkgrekn8v8hAkTvGLkIuVFoF69eqp///6qS5cu1gdCrM+0adOstzt8+PBMVjDILJn8+uuv6oYbblDnnXeer9WGnBWtWrWyvtGkwXgIcOVEuQkBVK9ePbIR/D4WLVqk+FjkXOq33nprL49vTqeR1FWWCgbvvPNO5BhdeyCTZAKR4N2K12KjRo181zSpjebaBir1fNZZZx3VrFkzte222yryiuAohlMayau4XuDajul3+fLlvkPjpIM1hzCJ9ddfX7Vo0ULNmjXL+jRefPFF1bRpU+vtprnBTJIJOUpq1KihrrvuusC1ef7551Xz5s3TvHYytiIQgIzuvfdej3hIFm5bTj75ZHXHHXfYbjbV7WWOTIgk7dWrl2fCC8uUNW/ePK+esIi7CBCk98gjj6jjjz/euqczbeN4x+knK5IpMsERCg9IjrgQSphgPsSaIOI2ApSw2HvvvRNRxN53332KmsVZkUyRCdcWEuh8/vnnWl+MDTbYQC1ZsiQre0HmaRmBY445RuFxmxXJDJlwfyW3BSeSMF1J/sKj+Yd8RASBOAiQWpIUCFm56mSCTIgYReHGHXb+/Pnef9cR/EzwNxERBOIicOedd6rOnTvHfb2i3ssEmVx77bXqkksuUfvss4/nUakrpOMj8Y2IIBAXgZNOOkmNHTs27usV9Z7zZMKpZKuttvL8EG666SbPSU1X8I7ESUpEEIiLADFG33zzTdzXK+o958lk6NChqnv37l4lNpyaNt10U+0FWrx4seT21EZLHgxCgJSRlOhwXZwnE3Ji4FPSuHFj9fLLLxuvJ1Grb775pvF78oIgkEMgKxnsnSaTJ554YmVNWLKck+3cVJLKfWE6Dnm+chE44IADFJnyXRenyQTPxgceeMBbwyeffFLtv//+xuv59NNPx3rPuCN5wVkECN0gl7DrCaedJRMUr9QyIT3f2muvrf7v//5P4eJsKitWrPBSFKDAFREE4iLAFZurtsviLJlgjuvUqZO3dk2aNFFz586NvY5YgG6++ebY78uLggCGgG7dujkNhLNkQiToxIkTvcXr2rWrGjFiROyFxAsWb1gRQSAuAqeddpoaNWpU3Ncr4j0nyYQgPXJd5DKQs4gsZjFy9NFHq0mTJhXThLybYQRIPel6aIaTZILSFeVrTmzcV9977z1FBq2kC2Fn+Pfm9NTxc/rpp58U8TquipNkQvKjW2+9deWaEflrI9iqQ4cOirByEUEgDgKuZ19zkkzyHc2w6Pz73/+Os/arvYPzG8fVZcuWWWlPGskWAmR2I12oq+IcmaAnwa7/22+/eWsW1/M1aMEJGCRwUEQQMEXAZjF2075L8bxzZEJUcMuWLVdi17p1azVlyhRrWJK8eOedd/aq3osIAiYIUNicAueuinNkwmKdddZZK9fr1FNPVaNHj7a6fnjF4iItylh7sFJaEwsc5Shq166tSKdI2sxcWQqcB4m+Jes8CvU33njDSzxUSXLooYcqiru5Ks6RSaGD2fnnn59IXdnevXurAQMGuLovEp3Xxhtv7JVe5QSJfou8vKTINBWiwDmJkiqCCn24rKdZXDcPO0cmhVXa4gb4RW1Kau8ccsghivo6ItEIkN0OR0L8dfbYY4/oFwyf4OQCsYwcOVI9/PDDqVSSk/5i4cKFhjOrnMedI5PCvK2mCZFMlo4vIYWWsPKIrI4APhUQCLoCMsCXSrgO4aiIovz7778vVbeR/VBA7Jdffol8rlIfcI5MuGv/8MMPK9eDmJpzzz03sfUhpyxV4Srt/p4YIP9pmIDKnj17erjXqlUrya5C28YTetCgQV4Z2Jw3dNkG89+Obfk8lXsefv07RSYcdYkQzpekyYS+UAgefPDBXmRy1qVdu3bq+uuv91JlpkWol0SFPao0lltIal63bt1yDyOR/p0iE4pUYxEoNZnkCAUzNJsli8J178Ybb1R77bVXaqcPyfXp00fx0SmXvPvuu2q77bYrV/eJ9usUmWAu3HXXXVcBbPDgwQqLTimEKw8K4CzpUEiYzI8UE3wlCAraCy64QJHvphzy+uuvexYsF8V5MknKmhO0GUiidOyxx6pnn33Wxf2yypw6duzonUYglEqSRx99VB111FFl8RMSMqmQneJ3MknKzyQMEszGuN0PGTKkLBs26eXCwQxrSatWrZLuKrH2GT95bkotQialRjxmf35kUs4iSNOnT/dKki5atCjmjNL1GmH0Z555pmdyjeNklq7ZKC/BOEXsSylCJqVEu4i+/MiEJNIkky6XYJ4kdQFempUsWGf4mh944IFWp8GaEZpPvhj+ocDOLxZP0CYnIeKh8FXBDG8jnURuEhQXx8mtVCJkUiqki+wHxSd1cvIFz0sUo+UUIpjJr4L+Jk1OVDqYcBrBX+Tqq6+2chrBaQvXd37AcVzgMf3jeUzmPLxpixXIHksU5uNSCDWYIEYXxSkFLHlL6tWrt8o68WXLd2Ir5yKycYnnGT58uJd1K+2CNzHWj2bNmhU91AULFqhhw4YpCnnb8sfBcoeH87777lvU+B5//HFFEF4pRPxMSoGyhT4w90EehfLxxx+rBg0aWOjBThOQChnbSHhNBPLvv/9up2FLrTRv3lz16NFDtW3bVq255pqxWyXClxPImDFjFAXRkpgnJ6cjjjjC0+MQSBdXSlVsjbXHS9tFcepkwgKhGMy/c/P/oa9Iq+Xhk08+8XJc8MUut8Mbkbx9+/b19BLFCgGQXI9KlUSZ6w9malJ2xpH8Avdx3td5h1gl8uG4Ks6RyZZbbqn4geZLMcF+WGRIrvTqq6+qTz/91Pu64mVL5GubNm2sHY/xyiTXBfV+IL9CQkxyA3KN6d+/v7XKhVxnSAVRjnwvpIYgo1kcwfnuoosuivOq1jsSNawFU3oeIjfGa6+9tsqA4mS4GjdunLrqqqsiFXMo09iEhx12mDUQ+HphgXrwwQc9JWUSQYQE40GGnTt39hSaNgRCJMCPE0I5Ja6jIg6HW2yxRWJBgewVFLCuinMnkyOPPFLh4ZgvaOsxP+rK6aefbpydDR3DddddtzIzmG5fOs9hPn3qqac8/QrBanHIBd0Hm3mfffbxrnxkiqtevbpO91rPoAs47rjj1IwZM7SeT/ohTnj4GJlKfvE203ejnueDw8fBVXGOTPhRc63JF927Kp6r1Nt55JFHQteb+znxFQRskVqQK8k777zjpRxkE+dSDSa1aQhofPvttxWZxtCzLF68WDF2suaTMwPBF4OMZptvvrnCPE7Nn6RqtmCdIWqa6Om0CHPFp4O5m8hDDz3khUMkIeecc45n0XJVnCOToHuvjn2fY//kyZMD15ofJ27yXA388nTgQ8FR36ZTVdo3XhqJJIcZTm7PPfecEYScsFjnXHUDo5cjHsYt4OKLL7bZZKraco5MOFVg0iwULCboToKEuz6JdIIEPwTqnlRaUFuSuw3yBJdigxrR3+BZixVpxx139BTcVapU8XxxOIFx4uHEEOd6d//993vXLxNBuf7SSy+ZvKL1bJyxaDWckoecIxOUryhhC4XkOHfccYcv7DNnzvSO6UHWhxNPPFHdfvvtiV9fUrIntIdB3FEQpjqN4CZPfhF0G1GnOU58OJeRNY310hWuo1x3TITgUII0bYuNMrW2x2SzPefIhK8lviY4TOVLkFs9mxRPSnQefkIRL47K1apVs4l7xbdVTNQtOidIBDNsHFwx1ePDgqleR0g0jeJZV0aMGOEFNNoUFOD4ssSZr81xJNmWc2QCWFgtOB4XCpsPhWS+oDDt1KmTL8ZsAE46rsZSxN1YxLFAwHHyqnKFwSsWC1sxwpUHz1ed60i3bt3U0KFDtbsrLOSm/WLIgyjrybLmsjhJJtRzHT9+/GrrRpwJZt98wXU8KDcox3hcwUVWRQCzMqZqU+EHhem4kNBN28k9j/J3zz33jPQFwpIVdPL069svYDTuGHPvobdBZ+KyOEkmxGlgdSkUws1xBMsJplWclILE5XydcTf1Aw884JnPTYUAzNmzZ1uPkeIKiuI2ytvWJCu8X8Co6XwLnyfqmqudy+IkmRAXQpxJoRBgxfE45wcSdjeOY1Z0eaMwN/RRXPlMc9yiI2FNkko2XVh4zW8d5s6dq5o0aaK9RAQQ2hQ8msmt47I4SSZBSlgWcurUqV7SZwQrDeZePxk4cKAiklTkfwiE6ZfCcCJWhpiZpOTuu+/2fH/ChLgnkzQDNskEMuVKhgncZXGSTFgwvoIcqwsl30S8/fbbe9m9/IR3uY+L/A8Bv7inKHwaNWqkOBWstdZaUY/G/juRyeReCROuZ7jK60hQKgudd/2e4UQEBq6Ls2TSq1cvxemiUGrWrKm4E+MUxXXH767NxsdhKmm3eNPNRTQ0nrzklEXfkxPGi5Wkfv36ng4Ixy/bP945c+bEItdSpH/AutSwYcNQOE3GYVtn0r1797IHP5rutTjPO0smpA4IymGCaZIvWWGKxxyAWBt0fRjigK77Dpsa936O6AT5UdtYR9ANEVSGNQpnPBvCD8LEvEqfpgGWccf5wgsvRNYyNtGZkG4C/yJbQnCfzahyW+Oy3Y6zZILeBNd3P18IIou5wwcpBHfffXct/wXbi5Frjx8HYfyQXqHznWmfOGsR+Fjsj4OE0mSsMxG8hrt06WLySqxnweof//hH6LvoLDiV6sikSZOs5JelLwIvKaTuur6EuTpLJkyOkwknlELBGQ3Fa5CJk5yinARKLdz9CQRDSWxTUABimuTqF0dIyG1a0pI+iWguRSwT6RrD/EhMk4oTo0Wslg3hZEgYQBbEaTIJ0/Jj+g1yVqPaG1+nUgn6DxIxMd5iTyJhY+ZERnpI0x84CbBxXzcRiNykvAd+IGTuJ15HV8CK6xeZ/8Pksssu89JR6kqYlU+3jdxzo0ePrpjSqaZzK3zeaTIhYxnOUn4pEFHABiU4Puigg0qW5AePUKwMpSqBgZ8I7uK6R342TJxkUVdeeaW64oorjPYnpStYKwL/IHS/NA+5BlG6Uu4iKmKZdAIfffRRZCBh/kDr1Knj5YgpVrjacDqLCmIstp+0vO80mQBykGt92ALgYj9r1qzE14iMcHjlJnka8ZtEu3bt1IQJE7TnhwMgTmcmwimLWsQmgkMhJ0ac4riKYlZu2bKl2mabbRQ/cPRg6G0YC9dQnZwjpicDm6707du396oQZEWcJ5M4mbPwP5k3b16iewALDV/fUhNJblL33HOP57SnI2H+OEHvU9oiTvU/9DN4itooqcqHJMgpMWjcca50QW0RusHHIiviPJlw1SErOBm0dIUUBkleO8jpipXFRgZ6vtgIViuT9tBNcFXQCYnHf8W0DAcnh7jFseiLiOBXXnlFd8lWew6i5vRl6isUN4ixcADsIdJr2syzGxuMEr3oPJmAI8pDvjgmsnDhQo+EbAtHdTJ5xa0ngw4IHQYpJrFi5JMBTm3EgKBkjdIlMK9bbrlFnXXWWZFTrFu3rnGWs/ywhcgOfB4gpy1Oh1ihwExXMMWiq/EL9IxqAxJjzW0UCwNX8M2SZIJM/AqaRy1ysT+GoPZJCESeWlMhWfXll1/uXU10vFsxR5LgB+VjkOC4BzZREodMTHUVQWPg9ERAJj4rYWVFSexNgXjwjZviAOLC8mNDXM+q5odRJsiEiRNng0u4riThAv3BBx94ru6mehLSCPbr18/4yMyPr3Xr1oEmcLDQSbMAkYWRkh+mF1xwQWhOXd11yD3HSQXPVJJV4Z3MNRQC4aSGhQoHRNMrTf4YyLiHYx4n0mIlK7E4hThlhkzuuusuRZCfruh+tXXb4zlTyxKOX1gDiim9gK4Ii0hQ8Seuf1ElNeNYc+jT1AJkgqXtZ20qXm2dymzPMen2MkMm3Lv58pgoEjlJYJa0IegzaEvHnEl/hMDjTo9upFjBO5SvpV9ogU4tF0y8WH9MBCIklqgSfCxQ0uPha+NUgkKctdZRbJvgWQnPZoZMWIygDGxBCxXH8SqoLZSCJl6YNvtmTJTM9KvBS1kQzOdhErcGb6V8oYOwifMD5jpKe1mUTJEJR35MoqQX0BHTmI6wNk18NSjPgAJPR9GqMw+eCZo7V5iofK5Bmeui+q4E3QEKaMZpqsfymzserzjV4XWbRckUmbDAUcW2CjeBSR6MoA2EwrBBgwba+4u4IPwkbAvZyPBMzRedRMeQb+3atWNlo+eqhpt8GoUkSChu45rpC+dEZj6/HDppnHsSY8ocmRBzge5E93RiI+oTt3mC7HSE5EbcuZMQv2qHRBJTcD1KdPKs+rWBnoivfxqdt4gBGjduXNTUtf7OqQSLF6SbVckcmbDQpnfkYn0GBg8erJ1P1rTGi8nGhUhzHrO593RPQcUUpiIgj6JdaZK4/j5Bc8j6qQRcMkkm6A+4dvzwww9a+5ssWWTLiisQxLBhw7ReJ5YEE3JSku+AVqNGDS8GRsfiAlakhtQ90RWOv3///rG8UpPAoZhqhH7j4VTCVdY0tUMScytnm5kkEwA3OS3wfDGlCkjCREJjHTFJL6jTXuEz+Ypg068pWdNw1Y8rePCSt6Wcgk6DcZi46EeNt2vXrp6XbtYls2SCRyUh7rrRwcVkWQ/K+Oa3+SiyjTUnKSElJQF0WBxwVTfJa0LJ1WJLpWKKxjXepF8bWLDekIiOfsikP/yBcAgkTirrklkyYeFJ1mziFEauUdzsTcXEgzRpMiGJNkdyrFRxUgTgjRvllxKFDy7wZEcrlZWHesTobcDWtsRJc2B7DGlpL9NkwiKYnBrQMfB1Ng0kMyETyl2SICgJIf6Eez0JpuMmemb+FC3X9eQNmwcu9yjDbWXQL+yLmkg4/1HjN6p8aBy82Q+cbJOILo8znnK/k3kyoZwEvga6gWwUosLJi3ISukIayJkzZ2o9zt2bO3gSQq5Zsplx1SlG8PLkymBLOC2Rv4STEnleCOCLI1xlCAQkMRNR32T5T4JEGBvXG05opTpdxcGj1O9knkwAnOp9nAZ0Nx4+I1yRdIUcrxMnTtR6nFwlI0eO1Hq2nA/ZSiLkN4cddtjBqxWNfoZTEF9+LEn5UcF8BD7//HO1YMEC7/qC4ppUm3GtTaZYJhFVbjqGtD0vZPLfFTEtMoUiT7d0BFG5URnUcxsDJy8CDNMunOT4oZtkd0v7nHTHh9MjJyCyqYn8DwEhk/9iQeQo1x2dZEG8QsJjEhDxhY4S00A59BLkPUm7cNrSrd+b9rnojo915wTUrFkz3Vcy85yQSd5S87VhkyxbtkxrA3C354oUVefWz409rIM0+GNoAfCfh0iPSDR2VsR2NLdLuAmZFKwmlo4ePXporzHXEop5Fbqp5zfAvd4kLwqRzVwjbEYNa08oxoM2Y1xidF+yV9CrEUFdKetSMmD+25GQiQ/iLVq0MKqbg3WEYlphVgjMySbJd/A0Jcq3EgQrCtcdE6V0Jcwrf4w4+ZE20qTiYKXNsdjxCpn4IIh1gAzyJjkuIBTKOwTFuVBYG6c3XeEkQ4a0YvKa6vZl4zl8WIhBuu2222w0l6o20JNgbsbCJBKMgJBJADY33HCDIimyiXAMJt2A3wkFF3ZT/464HrcmY7b9LFYu9Ci6Znbb/SfRHvE8xDGJhCMgZBKCT5wau8TVUK2PwlWFgrUIha2u4GFJ3IdJYiXdtpN8juTdYGdysktyPMW0zVWzmODGYvqutHeFTEJWDF0ASYF0vVdzTXGvpjRk06ZNV2mdyGEiiE2EqnhcnypNOImdccYZiriYShXKlPJhqJSrZrlxFjKJWIGoUhFBr5OdnYpuBJjlC45eur4sufd69+7tmwy63JtHp/+xY8d6aQcoCF5JgvctVRHjuvZX0lxtjVXIRANJymNwRSFZsKkQZTtmzJiVsTxYfQ455BCjZogDIWlS+/btjd5Ly8MoZ6n/M3To0Io4qeC6T3Y9optF9BEQMtHEav78+YpjL5nJTIVYE+SulcsAABWqSURBVBIrU5sFMS3GxTucdAgso0JfJQuOgRAjc0njaQUiIZAzyhGxktcgqbELmRggSylNLDZhNW+DmoMMLr74Yu8fpS05RlOkykTWXXddTxdDGkkXhBgkfrjoVTgJgG+pAvX88ONKg34qyeRULqxb0ByETAxXl03P6cCkMmB+F1tuuaUaMmSIZzo95phjDHv/84QyYcIEo6ROxp2U8QUigcGWqGCI5euvv/ZKbFC+E0/ipIQ8L8RamZrvkxpPJbYrZBJj1Yq58uS6IzHQ77//buRpm3uXEwrlOuOQUYzplvUVis0TnZ1k3WK52thZYiGTmDiSP5W8JmTzKpfgyzFo0CAnQ+EpkMUJjqz2NpM/F64VnsZUHhAdSfG7WMikCAw5jkMo5fSl4NpEcGISFQCLgCb2q1h+cHojcjqOstukY8qCTpkyRaw2JqCFPCtkUiSQ3OdJY4jLNT+EcgmxRKeccorq0KFDRZ5UUL5CIpQvTZpEiLUhVIJ0AlwZRewgIGRiB0dPQdinTx/PUlNOIYdqu3btPH2KaeLrcowbnQgJn8ePH584iTA/CmYRkDhgwIByTNfpPoVMLC4vCZv5IfMDKbfg6EYqBXKNQCy1atUq95BW9o9JmIRRo0ePLqnOiSTg6EeSyv6fGoDLNBAhE8vAoywk3UCaQvE51uPBi0kbKxLmz1LFm1CEnVQKECwOawQ6xjWrF7NU+PXgoyOK1mJQDH9XyCQhbMmPSsmKOA5uCQ1pZbPoCSjZwT+8c4kXIjI57rUInxASP+Ejgtkcz1YC/bB0lfvax6TPPfdcr5Jf9erVk4Y20+0LmSS4/Fx7OnXqVDFRv+uss46qXbu2p1fgP6tUqeKlo+TKhFC8HIUz/jGLFy/2iJI6PGkVsqOh0HXFYzitOOfGJWRSghXq2bOn5w8iUjoEjjvuOHXzzTeH5uYt3Wiy0ZOQSYnWGX8G6ueY5IEt0dCc6oZcMqR+wP9HpLQICJmUEG9yo+DbMGzYMCu1eks49NR3hZIZsu7bt6+qWbNm6sfr4gCFTMqwqhS7xmlq2rRpZejdvS4pfI7r/U477eTe5CpoRkImZVwsSkPg6PbWW2+VcRSV2zXm3muuucaZUILKXYk/Ry5kkoIVJDcsqQ3xxxCJRoDgPAIAUbKKpAcBIZOUrEUutSFWH9McsSmZQuLD4CRCyYkTTzxRquoljrZ5B0Im5pgl/gYZ0amZM3369MT7qoQOiO4lmLJVq1aVMNzMjlHIJMVLjy5l5MiRXiKkNHrSJgkd1hnIg8RIzZs3V/xvkXQjIGSS7vXxRke8Ty4wjhylv/32WwWMOt4QSbpNcCLFr+K698frWd4qFgEhk2IRLPH7uLFTYW7UqFGKbG8uCAmeIBCKn0sy58pdUSGTyl07z6RMEmTC6mfNmqWWLVtWEbMhKTZ5V4hipoYQilWRykdAyKTy19CbwdKlS9ULL7zgVaGDWObOnauWLFmSitlRM5lMcBAIKRD23HNPtf7666dibDIIewgImdjDMlUtYWomFSKFzzE1859vv/22IpI5SZ0LUcZ4okIYXFn47zvuuKOYclO1O5IZjJBJMrimtlWIhPwj/Pviiy8U8ULkHMFaxH+PuiqRpoDYF7KWkR+EwlV169b1/tWvX19yqqZ25ZMfmJBJ8hhLD4JAJhAQMsnEMsskBYHkERAySR5j6UEQyAQCQiaZWGaZpCCQPAJCJsljLD0IAplAQMgkE8sskxQEkkdAyCR5jKUHQSATCAiZZGKZZZKCQPIICJkkj7H0IAhkAgEhk0wss0xSEEgeASGT5DGWHgSBTCAgZJKJZZZJCgLJIyBkkjzG0oMgkAkEhEwyscwySUEgeQSETJLHWHoQBDKBgJBJJpZZJikIJI+AkEnyGEsPgkAmEBAyycQyyyQFgeQRyCyZfPTRR+rTTz9dBWGSHpOKMK6Q9vD111/3fZ00h40aNYrbtJcs+tdff439fu3atb1crIVCfWPKZ+SEshMNGjSI3Q8v/vjjj2rBggWrtBGWB5YxkLM2J9WqVVNbb711Inljn3vuuVX6yh/kXnvtpapWrVrU3AtfXrRokZozZ46Xf/fkk09Wm266qdX209RYZsnklFNOUXfccccqazFjxgx10EEHxV6fZ555Ru23336+75OVnb/HFXKsfvXVV3Ff92rSUCC9UCj+PWHChJX/N/MHh2KEouJ9+vRZpYkvv/zSyxPrJ35zI6P93nvv7f0ADzvsMC/nrA3ZaKONAqsjho3RpO+XX35ZjRs3Tj366KOr1DbiQ+NyXaDMkskWW2zhZWrPl4svvlgNGDDAZN+s8qwLZMKE+HrzQ44ru+yyi1fTJ19MyST/XYiEIl1nnnlm0TV2kiITiH7MmDFq7Nixat68eb7QCZnE3VEpfo8j+DbbbLPaCJs1a+ZdJ+KKK2TCSYDCXnHkqaeeUgcccMBqrxZDJrnG1lhjDXXOOeeogQMHKq5CcSQJMuEE0qFDh8g6RUImcVYs5e+MHz9enXDCCauNkjIOP/zwQ+x7sytkwo+W0qN+hBu1tOAKvoVig0xybTZt2lRNmzZNQQymYptMpk6dqtq1a+fVg44SIZMohCrw7+edd566+eabfUeOsgxFbBxxhUyY+4UXXuidAEyEWjwob/1q79gkE8ZEgXNOkdTtMRGbZAKRtG3bVi1fvlxrCEImWjBV1kNUm4M0/GTo0KGqW7dusSbkEplQaAudkkkZz+uvv15ddNFFvtjZJhM64VrKtcrkymOLTKiSiF7pp59+0t4rQibaUFXGgxxH+aEEVa7j7osmPo6Ui0z4UUWZNLEyXXXVVatNq9Cak//A6NGj1amnnqoNBdeiQpNw7uUkyIS2zz77bDV8+HDtMdogE/YQHyQIRUe23XZbtf/++6vLL79cTMM6gFXKMxyNwywV/CA++OCDWNMpF5kUY9IMI5PGjRsrzJw6gsL2iCOOCHw0KTKhQ/QnrVq10hmmp2ehFKqf6OIIKfTr1y+yv4033ljddNNNnnI2C5I50zCL26NHj9C1ZbNxejEV18iE+c+aNUs1b948Eopjjz1WPfTQQ9bJ5IknnlB//PGHgvSCSAA9DY5vOg6HxZIJVz9OGlE1mXfeeWfPIrb55ptHYufKA5kjk+OPP97XeSt/QWfPnu0dY03FRTJp3769uu+++0Kh4Ae21VZbKYqiB0nckwk6Ea5onJD23XffQB3Fddddp3r16hW5ZMWSCde+22+/PbSf7bffXj3//PPGyuHIwaf8gcyRSdi9PrdWOB/hIWsqLpIJ5vJPPvkk0HsVjK644grVt2/fULiKJRMaHzFihOe45idcKRhn1OmkGDIJs1blxsQ4XnnllUydSHJzzxSZsKHr168fyRHnn3++Gjx4cORzhQ+4SCbM8ZprrlG9e/f2xYOYGq4ZxKCEiQ0yof3ddttNvfbaa75d3X333apjx46h4yiGTPzCBPI7wz/nySefDAypMN5QFfZCpshk8uTJqk2bNpFL1Lp1azVlypTI57JCJptttpkiMHKttdZaDRP0JOhLosQWmeBteuSRR/p2d+ihh6rHHnssMTJBD0LAXpDgnTts2LAoKJz9e6bIhOAzvi5RQuQsPx5TcfVkAg4PPvigOuaYY1aDBCvK9OnTI6GyRSZ0RESx3/pwJSNyO8zvJO7JBI/ghg0bBs5zvfXW88ZEdHZWJVNkgq3/6aefjlxrjqtsyg022CDy2fwHXCYTv2jiDz/80LNsYG2JEptkgjUOq5yfzJ07VzVp0iRwOHHJhBNHmDMjf8PhMcuSKTKBHJYsWaK13tx9IR8TcZlMwAHz6w477LASkksuuURde+21WhDZJBNSRwQpyO+66y7VqVMn62SCLuaee+4JbNd171adRc4MmeCtuOuuu+pg4j3DdYgfi4m4Tib5OgG8QEn08+2332pBZJNMMFUHOYKhOEeBHiRxTyZh+hJwWLhwoRYOLj+UGTIZOXKkOuOMM7TX8uijj1YPP/yw9vM86DqZcLL7/PPPvXidoMjrIMBskklYDBDeqX5hA7lxxSUT9DBBjmpHHXWUmjRpktFecfHhzJBJ165d1ahRo7TXsE6dOgq/AhNxnUzA4tZbb/V8PVq0aOF5x+qKTTIJu3IQDX7uuedaPZnglEcyrSC59NJLtdzrdbGq1OcyQyZRZj2/BSRoDc9OXckCmaAzIf0j2dRMxBaZRF2vMOlj2rd5zXnppZdC01LgEdulSxcTOJx8NhNkgmWG462O1SF/lTnK436vK1kgE7DAWsIPzERskUlUbBXXsE022cQqmZAT95BDDglsE9N42N9NcKrkZzNBJmGOTmGLh47ltttu015f18gEE7kJAVepUkX9/vvvvnjZIBNSQ5x22mmBWc34QUf5vMTRmdAvOWiDBEc2v8z/2hvHkQczQSZo94cMGWK8ZGTzevfdd7XfKxeZoFz2i3LGc5XyDWESloIAT1NdT2CyrqOgfO+996ySCSb6evXqee78jzzySOhcdMz5ccgkyseEkilZig4OWoRMkMk+++zjZVz3E5IfswmDBNOnbmrAcpFJ0NiDylvkPx9GJvhVkLFfx+x5//33e8l/bJMJnqU62cx0k2AnQSYme0T7y1SBDzpPJhSuwqQZZNbjGsOPIKgmjUktHdfIBEUrLuJBqRhz+50jPkd9Qu9tk4nObwrLG5G6OgWu4pBJVFS0kMmfq+Q8mZAHI8y9+s0331SXXXZZ4BH6yiuv9ELsdcRFMjn44IO9qGCy9gfJnXfeqTp37lw2MokyB+ePOw6ZsD+uvvpqK6dXnX1Uqc84TyZsNLLR+wkb65tvvvEKbwWF2Osen2nfRTLhqkSm+qCUDOSHQa9ERHG5TiZchWbOnKmV0CoOmYQ5ybHucjLJyMkkzMEpF7IeVDgKiEh2k1+LN+yr4SqZhGVSQ/l7+umne7CUi0zoG2Uz8TFRtXTikEmUAlbIJCNkQtg44eN+QnYwjrAc4dlkQWkH0QOEhZ/n2naVTJjfiSeeqO69995VYOQHDLa5kP9ykgkD00kxGYdM8PolC36QED1NWoSsi9PXHE4UKOeCJN+UGOYhS/3YMD+DcpMJpyd8PAqFmJGoEIIwaw4KWK45CF/9Ro0ardIFX2yC/3KSBJmQeX7dddf1sr3pFFSPMg/HIRMKu4NTkJD5zSSI1FXScZpM2IiHH36479qtueaa6vvvv1fctxHiTcgx6ie6GbTKdTLRLdHgNzddMuFdcpqgm0AgMCw9+UW6kiCTXEJp+oS80H+FOdKRNiLM1B+HTJgzcw8S8YD9ExmnySRMC08uUcyJOeELTjCgn2ANIulOlLhOJvm1cfyywSdNJuAfdeXgGSx0nDT9JA6ZsE923333wOVn7+CZm3Vxmkwwa1J3xU/OOussdcstt6z801tvvRUYvLb22mt7epWoMpSukwlgEeCHE5tf6dBSkAlj4Oo1ceLEwN9uThdmi0zwQapbt25gf5TYgFyzLk6TSdhXiAQ7KOzyBZd0rj5+olOMKgtkQiYzSkrg6FcopSITlL6EOgRdd6izw/XIFpnQDiU0fv75Z982CTsgWXnWxVkyIcXgTjvtFLi+fukFDjzwwMD7dlQGLzrKApmQAiBXr7lcZEK/lHil1KufEMvzxRdfWCUTYo+4PvkJ5VOiSn1kgWicJRMKaQXdY4M2W5iOBUUl8SdhkgUyCZt/qU4mjCEqeDPo1BJHZ0J/5Jwl92yQvPrqq6tZu7JAIPlzdJZM8AtAWecn7dq1U5j7CiUsVYFO+QshE/uxOfnWnPz1inJxD7JwxSWTKMWvZKd32JoTdizFOuNXS5jC2IWOWfkbmKMzp5ogETIJJpOwnB8oN4MCLeOSCVUI8s3WuTWLSyZRdXNq1KihSEUQp+C9KycYJ08mhKxvuOGGoYW04ywgSYNxBBMy8Ucg7JoTVgoiDpmEnTxxclu6dKlVnQmNhX2g+PsFF1ygBg0aFGdrOfGOk2QSFmtTzKoRDIgnppBJ+ckkLEdNWFKruCcTZhxVaxgXgtmzZ6vGjRsXs80q9l0nyQSbP0l9bEuYyZG+5JoTfM2xeTKhagC5S4Jiqah9HOSHUgyZ0C/pGIJy47AHcJbDyuR3xbK9H9PWnpNkolv/1nQxOD4TIRrkvCZkUhoyiSpbUhgzlL/OxZAJ7eBf069fv9Ct07JlS6/mUlQEs+n+S/vzzpHJihUrPCWYTqq/OItDreJ9993X91Uhk+TJJMqqQhJsMtTj++EnxZIJPjacPogUDhNKguTy18bZZ5X4jnNkQgQncTdJCbV1g9IYCpkkRyYksSJJ0cCBA0MD/fwKrNs8mdDWY489pkiaFSWkaCALHc6QWRDnyIR4m/yw+MJFpO5K0Fcr9+zo0aPV448/7rv+YffxMDLBuqQbpk47hRJm8WjWrJmqWrVq5H4lBWVhMXaTqOGoDpKw5mBBWWeddRQfieXLl0cNwbteUNo1SIo9meTajbpq5fdP0nL0bWSs46rsqjhHJmGeirk0jVGLGZbqkQJPHKP9JIxMovrM/7uf92YYmei2nZ+fJPdO2slEd248B6kGudjn2rFFJpieKZGaH3keNdZiUkVEtZ2GvztHJmFfR91i5AT1sVGCJKhOipCJ/WuO7o9E1yxri0wYF+TAiSMoI3/h2IVMdFczBc/hwRqmQdfNYh7VDq74uOQXipBJ+cgkPxdt2Fa0SSY5QkEhP3/+/MhfgJBJJETpeSCqJmxY0pzCWVALZt68eb6T69mzp6cMFDJZFYEkdCZRuwvrDWuBPkJHbJMJfZJxrm3btl5qyzARMtFZoZQ8c9VVVymUjH5ikmWe98PctbkCPfvss0ImBQiUmkww0Q4dOnQ1pXIpTya5vij2duONN3peskE5cYRMUkIUOsMIc1YLihQOapd0A4XJk3LPopEn8xq1YvJFrjnJX3OwilGihGz5YXFSQeuaxMkkv6/vvvtO3X777QqLYOHJVshE51eckmc4MQTVuLnkkku8qnO6QoRw9+7dAx+nEHphOco5c+aoTp066XYR+JxfsfTmzZt7BcOKEb6cEG6+9OjRw/Ob8BO/58P6p62gJEH4h+CK7idt2rRR/AjzBaKuVauWV9qVSG1OPZiJuX4WkrgJJk2bNg2sTojinROsLXnjjTfU1KlTvTAL8p3wv8PSP9rqt1ztOGfNKReQ0q8gkHUEhEyyvgNk/oKAJQSETCwBKc0IAllHQMgk6ztA5i8IWEJAyMQSkNKMIJB1BIRMsr4DZP6CgCUEhEwsASnNCAJZR0DIJOs7QOYvCFhCQMjEEpDSjCCQdQSETLK+A2T+goAlBIRMLAEpzQgCWUdAyCTrO0DmLwhYQkDIxBKQ0owgkHUEhEyyvgNk/oKAJQSETCwBKc0IAllHQMgk6ztA5i8IWELg/wEM9QGcfgjrrgAAAABJRU5ErkJggg==;" vertex="1" parent="1">
          <mxGeometry x="620" y="327.62" width="65" height="64.76" as="geometry" />
        </mxCell>
        <mxCell id="sNuDHfzyufjpb4VffAJZ-38" style="edgeStyle=orthogonalEdgeStyle;rounded=0;orthogonalLoop=1;jettySize=auto;html=1;exitX=1;exitY=0.5;exitDx=0;exitDy=0;entryX=0;entryY=0.5;entryDx=0;entryDy=0;" edge="1" parent="1" source="sNuDHfzyufjpb4VffAJZ-14" target="sNuDHfzyufjpb4VffAJZ-9">
          <mxGeometry relative="1" as="geometry" />
        </mxCell>
        <mxCell id="sNuDHfzyufjpb4VffAJZ-14" value="" style="shape=ext;double=1;rounded=1;whiteSpace=wrap;html=1;" vertex="1" parent="1">
          <mxGeometry x="329.77" y="310" width="130.23" height="120" as="geometry" />
        </mxCell>
        <mxCell id="sNuDHfzyufjpb4VffAJZ-15" value="cloudflare-tunnel-1" style="text;html=1;align=center;verticalAlign=middle;resizable=0;points=[];autosize=1;strokeColor=none;fillColor=none;" vertex="1" parent="1">
          <mxGeometry x="360" y="280" width="120" height="30" as="geometry" />
        </mxCell>
        <mxCell id="sNuDHfzyufjpb4VffAJZ-16" value="" style="shape=image;verticalLabelPosition=bottom;labelBackgroundColor=default;verticalAlign=top;aspect=fixed;imageAspect=0;image=data:image/png,iVBORw0KGgoAAAANSUhEUgAAAfQAAAH0CAMAAAD8CC+4AAADAFBMVEVHcEz2kjT0gSHzgCD2kkDzfx/6rj/0gCDzgCD1jjj7t1X7ulzzgCD0gCDzgCDzgCD0gCD6rkD6rkH6rkD7rj/6rkDzgCD7r0H7rkD7tlP1gSDyfh7//fvzgCD////3jyv0gCD////zgCD0gCD3ki30gSD0gSD0gSD2hiT0gSH0gCD0gSD0gSH0gSH0gSD0gCD0gSD0gSD5nDP0gCD0gCD1giL7r0D7r0D0gSD2jSnzgCD0gCD0gSD1gSH7sEL0gSD0gSHzgCD0gSD7rkD6rkD0gSDzgCD0gCD0gSD5njf0gSD0gSH0gSD0gSD8r0H6rkD7r0H0gCDzgCD0gCD7r0H0gSD0gSH7r0D7r0H6rkDzgCD4lzD6r0H6rkD7r0D0gSD0gSH0gCH0gSH6rkD6r0D8r0H7r0H6rkD7r0D6rkD6rkD7r0H6rkDzgSD7r0D////ybAH7ulr3ljD6r0D7r0H9zIT7u171kkD/+/X//////////fv5vYv4sXb/9Obycgj6sEX7r0HzgCD6rkD////zgSL//fvzgyX//v7zgiP6r0H///76sET//fz//////vz6r0LzgSHzfx7xbQDycwjycQbxbwHzgCHydQ30hCfzfhzzfBjydg/xcAP6rTz5oybzehXycAP5oiPydArzfRr6qzjyeBH6rkH6qDH6pi3xbAD6pCj6pSv5oSD//fryeRP6qTP/9+32l0j0hyz+8eX/9Or2oVn3qWj/+/f1jTb+7uH8w3D2nFH/+PHxagD1jzn97N3/+fT3o175uIH7skj0izLzgSP96Nf91p77uFb7tlH8xnf8zIb83sT817n71LP6x5z5u4b3pmP1kDz+58X827/4rnH95dH7s0z93a72nlX84cr2mk36wZH7zqn6xJf90pP1lEP94878wWv70rD4rGz4tXz4sHX6y6L+5L37zab8z43/9OP+6s3+8d3+7NH92qf94LT5vYv4snj7ulv70K38yoD5nxv1k0H6sUb1kj/93rH8zI77vWL7vF/+7tc9pAccAAAAgnRSTlMAAWH9cfr6BfsFBXH6Av78A/wF/QT+BGEDAgQEBPlhC8f89PcUkqGYDi7PX0k/g9pqqAjguyScuHkX7bBEM2lWUtWM7cuH5rhmB7wdTykf4DbD6cArWjtQsdbwLZP3jX9vYzbwYD9awHn06Iiic2Sz+3FfqEYGc3cOL5dy82pj+/qDKZ0bpgAAGHZJREFUeNrsnXlsFNcdx98wknf/2GOw2YkPXIPv+8QONuYy4IMjYAwp8EcAR2mjqmn6R6uef72ZuClxhQsJSUiCIwKhpFGbVAX1UImUVK2UKm0jtZUq9VT6XxS1/aNppUpV35vZ9a7XJjtvd2Z35vn7kYyJccC7n/2db3aXEAAAAAAAAAAAAAAAAAAAAAAAAAAAAAAAAAAAAAAAAAAAAAAAAAAAAAAAAAAAAAAAAAAAAAAAAAAAAAAAAAAAAAAAAAAAAAAAAAAAAAAAAAAAAAAAAAAAAAAAAAAAAAAAAAAAAAAAAAAAAAAAAAAAAAAAAAAAAAAAAAAAAAAAAAAAAAAAAAAAAAAAAMBzFEaUoWn8V/5fuE/kla1V63qoZhXFSk1I13UN8uXSrYeiy77Q2jh8YHDwwHBrnZb5dS1UDfUS+I6G9NTvD4ye7W6e6Rmvp8uoH9893dfd0TWY1K3oIZgPcICH7DjWDnW0TI/QLGLZX6AjMy2TbXZKqIH4IBrX7QgfPNs3npIajoTD4biqxjiWd46qxtmXI+HUdw309Q7a4vUo7sfgELVL+OAj03HLoxqOxNWVkZ0d+uzbwqr98Jh5pC3jLwK+j3FLlLZrW4NlknnMqTtbvfU/1G7bNQXvgaCal/HW3k228LiQ7wzzcVt8e28rfwBVo777Oa3zXzrarQydzNR5o4bDtvd+9pci3H2KxoN8dAs3lXeIrwh4/mnLaOpvBz7L6ywFt3bXW8api1jeG8Z4mg/hXvYV3EfbBHcUjlGXiYX5o2hiO7T7TvnB3TzIVeoJKg/3gZ3Q7ivlx0/xzot6CO8LT3VAuz9qOfvoYKU8HKceE2cPqtre5D8JStixs1HqYL0dh97Ds3wDS/JRdPKlXL4RMjvgXSlfXft4F8vxWNeUrpi3ThcrytM7G0o3NaK0l2j9xnLsPiYhTotMnP2LTezfx5KuFGE+ykI8QksAHxN2IdiLHuaspk6USLm156V0ml+XAxNFDfPjLM+qtGTwqtKBYC9i015DyEwJw3wp2NvZzIg2vljrmC5WV2O0xMRYae8kRIeRoqT25pKH+VKw9yHFF4Ea0n+Uqir1BeznqG8kNUjx3nbthHT6JMxtaq3hDWtZD2H1s8kek30D+2FaUNi9LeebfJPa05fP0h4Udg+d1zX4KbWn+zm1Fda9auEOUT86t36oWdR1b3q4Tp86twp7h7UaBq5u4Qg5Q2mc+hT2g221Zgvg6qjGj1Gpb4nZx60w5arzJqrGqJ9R+XYO1t103uzf1J4u7Ntg3c163uevjQysF8F5cxCcw7qrtPg/t6cG9j7rQQoKLuj7guKcx3oTQt2NPVyvn0e1lT38VuzmCt+3d672QlB+pgN7+EKdt9EgBbr1AJ2F9ULQST8NTkFf2si24ny9oKVMfTCGtazTF1xLUwib/Hqu9tGDWw8Gt/wb96YgOufWWxDq+TfuKg0kKt2FZi6/Jq6OBlU6a+Eb0czltXEfCV4Tl27mGlDW8ynozfyi8qBSS/tQ1sULeldQc3uqrHeirAtP6DTo0qmCsxfBir4pmNNa5tzWjqoultyPB7eJSzdz65DgBZN7LOjS2Q2IIsELSN8f9ORuJ/hpSBdZxcWpBISxmBNYy6jB7twzOnisaJwG+pgMyd1O8E0IdSdopJFKxDAWc466uOngj2vpqt6OXi431WRWjoKeuniqC68P74ABOVr3lPRxGM3dxe2UJ7nbCf44ermcNMiU3fnYVouxLVegr5NlXEuPbb0I9RzUyxXoCHVHgR6mVLZQP7v2Ql2JaroestB1LcdrMEkX6DzU69fWokUPrbKP0kJa9C4z+kH5Ap038DvXSqgrWvJ9rKoP3L+z9/S+sbHurZO7tg8n/zS0ysvjK6RHphk9PasPrJENuvXQnurq3j+SfR+MT5zusv40OwtoZLt8yd1O8Nvl38ArltO2sZ5UfuNEItan5Jd6xrZb3pVl0vfLmN15fp+QXbql/FBLg5XZIuHsl3+LqWH7Hc5rm9u49mj6pKWVSkur1OculvLJAZ7UIvG7XucWi1tvlXn0DPvmmmhqXuuWbTGTntrGZG7l+E3bx63mfv9T1fqWlrpkklek28BmFnWJn+XEC9dW/sh22INbb0bfXG09VqpJp5wV3W7gR2U9YWXq1nHlAlcvx7j2bv6e2NK2cXYrt0XOVo7dqOEeMeXJgkfVUd7ISXCt+10f25ROydjKsTA/nd9bmfNon2Ddn6xtnP3InpSwlashdUfzfiMl/s6lg9MybuPSRV2+i+XY7RmlhTyfXOIgT1EnmXVWzscKfL80VZVbuXTXUlTzdzmOqRSsnfyuE7J7LeTnQvv3kETWWZwfhXMHo/pBeV5wSueXu9RCam7pfWzEkaaHG4DztbV/Z7eiHbndYVU/JMkqNkr64Nzp0HZGjqEtRCblPSVxvajvl6Ko62RQ4lMS14u6FM96sF4FKg6djov6oASTukYm0LgLFPWnv0DKg1/QRxHnAnztpa8GPr8rgX/91mJL/+wvv0w2VgW8i2vGtCbES7fMrxCycePGKkVRqiwUTpAK+gFoFOHrz/zBfNx8dOMqOXMDp7JKCYD0GYzoQtn9lV+Zc5tN89GPfemLClE+PzXV31++PNkr5Uy9r8/W2jChi/DN5y6b5hMms85+NT98+6cLhs36PYf3nhh6+OPH6pJ3bfmGKt+2cbsR6EKB/sLvzDlm3Ny8ebP53r+vXDGWqGAfCf5x8tM7jkwlxSt+TO5t6NyF+Nmln5vf4NLN8+ZPvr2wwC0bCU7FekZZWcI2bxwe+oT1fO7K8irfSd+CQBdq415+w0xy3vzn1XljJYkEt2/9ds/Q5/i9XFXup3iX+hmm3mT3i7+2szuX/uObq0lPqq8os8Xv3dHP7ukNlT5axnVjRhfh6csvf4cNbKbdxl25fs74SJLi997Dlfsn3EdQ0oUC/ck3kxWdBfrfFxeMnCTWl/FPJ45w7VVo44JY0i++k5I+Z/5lcd5wgu19z8Ms0isrfZDdm5DdRXjsxWfNNG+/tmA4JLGez3NDjb7QfhSRLtbGvZtu416/aYhQwcP93mOl1h7F2l20j3vyFrOdlP7fq/NC1o0E1/7J+1grr5Qyu08iu4udtXwv2brnGtjuxvoEi/ZhUsKLMGrINmxmxM5a/pbK7nxgu3LDEIfPcEN8cMfAFoyzlmvXLNsCA9tq8CS/o1Q53lrH4YQtj7MWa2B7f3HeMPLW/qljpcnxGpnFtXFCJX3prEVwYFu1pRsqSbDrpBclXeis5Ydm+rBFcGBbpbQnHipBZQ+RFkgXGtL/nJHdf391viDrhh3s5UVv3nGsKjKjX3j+BxkD23s3C5RuVFQYD95HlOLu4/lFM6jpAmctt5cqet4D24pg31HcFK9gCSuY3d9Zyu7nzQ8Kze6pyn6iqCmeSY9AuthZyxNuDGzLD2KMB+uKaN16ZgvGdMeBfumtpUAvcGDLTvEPkUoF0n25jnvq+6mzFvb51qs3DJdgKf4zhFRBuh/PWv661Lq7MbAtt/4AIZWQ7uezFntgW3BNupGoMO4tknVIF2njnruQbuPY5+tXbhguUmbsLc7oxqTHId3xvPZuZqB/sLhgGO5aP1kU60z6KYxsDrdxl5+fS5f0844viRSxfrhIa5oebOScBnrmvPa4+b9vuRzpSeve13WNTGP37mxcu/aimQ50awd7znDf+skiWA+RZkh32Lr/MSPQ+ZTuvvNkN+f1vK6TrZDubANL0607l/6bxQXDE+sninARRSekOwr0O7/N3MDOmf+4Om94Y/0BrxM8Lnt36Pyp20sLWK+a96WXNbjH09MXRYliO+Ooi7v8zFyW9A9f9Uh6wjCOeGJdiWq6nnwT5BnMbA6S+58ykzuX/oubHknne/gpt8d1Rct4h3utUUH7ntv5pTfT01oBz21xXNb3uPlylEy4Hd6tsx1NW3aPwKej07XvPmYuS+7eRrrdwrs0tym6/br095+eqE/fIhT0nAX9wsUfLU/untZ0O8PvcKWsa5bxtu52+5aokXA4rsag3EGg3/lXtnMm/f1FD6WzZm644LKuWMa7mq0Ij0fCKmQ75tk7b2Xldk/n9FSoF1rWLeWDTbVWgMfhW8z5K7fNlfCNnJfSWVkfKiTUo1z58R4e4mGcogo7v/Qfc2Wgu3uF3F0yfP7TuhXl+3jDFoHxPJy/8IaZ8YRFM+OUbeH6OcPTBF+Wb4Jnyv/P3pkGt3WVYfiagTiUeIgTEzotkLa0BMiEYUqBtGUKDEtnSpuhA6SFaX8AaQuFYch0hn9suVebJc+VbUm2ZVuyJcuWLVvel6Sxs8dL0izOZidpkibN4iaxk9bN1inlnKurzdZyJd+rq7rv8ycTp5Gdvuf7znfe7ywPryA//EIYMOlpvium5gov1MUE/0JaCZ6+B/oQ+dkXYR5PM7fv4mYV7mlfN5M6a1JXPW8xw6yG5HOp4TrixDndTtHnVVjyfPbVdDL72t9B8vQ9Gd3A9riay3NmNWmCT7HflpfHME9C8jlYMiUDFxJoLtv5xcQWTUq1HAnzH5FVOcq3tHssrbX7Y63VIhn2mlnFa7klqWj+1AbcDzeH1G4r6eKKjIkk57mpFsVLOfbrUjsvJLN/g6zSkNnTDnP7wHGO83OJ0XOv+xSf1Z+XWMAvE4p2hHn6Ye62nIq3VIsKdaPXY1Y61B+VtGOOpPZH8FbuHMK8buDONk7Pc1xy1adazA0Kh/r3pYiey+Q8hr0w6RftGlvrOxLCXFT92s0MODR3J9f80Q14HjltyQ3u0vNcopXaTAv+8k1Tg9qz+jLmD5jO05e8vPTk1uQVXFTfZegmq/C8vjxJAU/PLiC3p1m+lVma3jpGolzPcamoft3nvd2g4lr9XuZplHDpUGbQ1dmsx8+SabqISw2eax9rcSiX45PZcrlUc3TNU0Wj09ktpZUXu1OYzKN2TnFDbU6HyaxYqCfaJJnLrILmKeZ0g06nqbE2tfbs49KI8mCsc/xej6uNNZmUWMAtpYfW42v+zCc7t5cJFAfRBNhtCKObQXFdvbXUWtH7Ni3dtDyXLnSBNz7c6Gr0EOEJZkJDQ4NsCf7X8VZtufS6/s9/TLWKI9IslWJA/zONpri4jHxUCcFOqKurq6yrJNTUtLa21tdXEcrLy91ui8VitVqrq6ttlFKLfWPvga1UtiKtkZsDgpXTPn7uttfldPqaG70ej8PBNphNImQQFDakn99fi7NqW0xPIqpTt2sM0cRQpiJCIYNht0ZQqUz42wGhqExhkUSV3IJKVCZCbXVQK1upQBOhtNRmq60lf2pxu8vLyV+qb22tqSEfZC+xl2h0FZ2du3Zt3HLozlsdHSdPbj7e07N9dLT3/MWjF997b8fp9090iYGq1XNzxRiwc/qvfjC0d8+56RGTw+Nt9LlcLqePDoI2MgpY1mwODwLpM0HcUi6HXh6jyvrcYKgUVQoEU0gnUSNRH/oL/W2toBFRyUJ0IkIFlKIqFRsqRJGoSlSmzSGZiEoXLuw4ePDdN988feDApXdOvf/2/n1Hjhx5440TJ84eOzY4uHXrpk1d3d3t/dv6+lKSsEjLGzl54KMnCH//lY+uHr5+7QwZBB8OjxWSQdDsc9JRIA6CQqlmXj77XMxQX8x8TR0fzlBlq9hIg+mWINPxnu3bR3tDKr0bVCkg0z5BprNnAyp1dQkiaYt4TmmMer2eJxQRtFo/Rasl31gv9zci30OrjfOxfd2TU2QQDF2+8fqHwyO3Hc3NZqmixzTgc5kfqjOfG6xbBpURSZBIm4SiIHwIvYAxBKcSRmP4Z4qdTPr3+MxzyO/LmAfVOYlocHcEChkhjviiSBKqNFOkaKW4+Qf5Vwn/j0geEP7VwhelnnzNZ1+eld9z6ONqahRxxfaaVJxqEDUK/NwViaFO83vBrEBX6WFkg7tHYhMSxPLt/W1p1+/L6OYodfYbWHq5IqiXbtHHtUsv5X4ZXcqREfCASq7M7taN1MniY8zQ83Vulm2GJ3Uet1fqHjt6z9iS6Mr9W6p10A22S8m8Kr2MFd7HvYrjxQARvzwu+f7B/Bn++2JauatmoZZYj56lS+5uaoxQZ8SvVXTVLXEtN3sI8ZkcPkGNE6zX+L6P9jhT6a8+HLmVIo95VsWtMmVlVptVNELLq+pba6i3tkFjoA4oddcE2+bWTNtmh2DbnA6Za9S2CZhrg4ODIdfGr6Rrw2v9cnszxkAoxx5Qfe2TU4cnPhii/tz/hsdMjjZnKg9D5LMvRdTv9zBr1W2n6gy7qZeuKRZs9JCLHmWjhw1aa8CgDTnosw3aWP5s2ES/JbrogSF0PjCEZtiz+6Lt2S7RnvUXJXVO59Jxifog47buyamrE+NDogdrDnmwzuZG0Yk3m1JquvwlalL/edb01oKNTU2shpmkVkxEJ6YkVicmsl0mNmKsiRoxFrERU08bMeRj6uyCx9/ZuWXz6I79mwS5tDJkjcAvVw5fu0zjeKfD0+ZtFiT2NYe6LYXBdos5pXZLMNJ/Gk7v1H+dp3viyhL0XKW1XEkGmtlxDQ6h+nKrrdRq33ypm+PmZjUEFO+b2Dvs8AmBLGjsIBrL0leNvVJ/DJtlpI6eiM0VwrjRVLpLLR375iK7kNUnz0x7Xb42hzmssQI7aNYEQ30eB3qGdkttKG/SneKSnFVMtGOmfWjE5/QqtFUqTnsV7+PO1WrQ1QzsOpbOlkgq+dS5ZlebWWHBg5VcgWjArsKOZxl2w1YN7Eg5xdO8fn3E1ciaFD/DGIj0V0QjNo+5D9ldlt0/A4dSU52uxid2trSZTGxmWEqvkMSzDLJSYS3mpatON8QdHmvxZCbIw+V7oIx7COfW5FK9vNIvVXWS2fvPkSjPnOQCD4rttYW4uVsmSnTuzmR3zEQcaWluzrTktLuKl5bkVr3C1iMxzK/sbGFNLJtp0V8OHFd8EqLLmeEHLiVP8DTMnW232YyzgP0TnsFWwKqxu/3JEryWM063sGZWDdFfELL70wh0WdFVjyb2aIx6brKtWYUwF9L7a4Loj0N0mWO9titRqJM/Gnd5TKxKor8iZPevwoKVO9R7E8zqRPMbN1VJ7QHRf0u3ST2DGV1myuytPKePr/m5FlODSpqzS+md0LnMajgzsod606l4oU40n3bdZln1RP8JjfT70GyR3YR3b44zqZOvjvlU1JyI/me6Tl+IKV32Sq6ujouZ34nmI6pqTkR/kWj+C0zpCoS67VisVRvRfFhdzdkv0Id8mJVYsCkwqZceiDGpk9ifdqqrORE9X3iRB3Wc/KJbj8as5Pa4VNaciE7TO+q4TFVyPDfUYlJZc3FOfwB1nAKi1x+K4bdPtJhZ9UUn1ftydFsUQFPTKVz4GhXn/T5HYRaI/irDfBcKKSF6pW6G6OQ3Y17Vk7tow/4AU3pGROe5va4s0Fw42MR8G6JnIr1rucMt2aC5cO8M8zOIrkQhR+/WMEYld4fHnA2i0wfVmRXwZpQQvaojyoYlyd2ZFYFORP8vwzyOSFfEnBmNNGd4btKVFXFO0/sTDPMslulKiF59MNqRG/FmjegvUUMOoivhve+PEJ3aMtmR3Ok6fQ3DfBOiK1G9W7dG2bA7PVkS6MJVQ8yPIbr8FFeWRBTvWm48iwL9jwy93h0urPzF+4x+izlbAl3wZu5GpCszpZ8OT+k8N+HKlkAnon+PKcCcrsiUXhs1pQ9nS+kefKgL1bsSJmxFeEona3Rn1mhO5nT6ZNMjMGcUsGZ6I7P7DV/WZHdSvOcwOXDkFF6lk4D3OBqyZ0oXbgReAdHlpqykalvIeddy17OnjCOi/5VeE7oaosu+YKu6E9lhm86eMo7UccIrLr+B6LJnd1vYeOclP7CSIYQLI9dCdNkjPeKkA89ddpqyqHYXzjThzKr8HmydPbRgEzZPFGbRlP68cF/kcqgkMxW20YhAzyI3jmVfZNcFLgn91YYvL1SPRZ+Zbyz699/b7w/iv//Mzf8syAz5SVkQvvj7O6rmQs18o+ROxN0jem7bToe5MANIu0tYfEE9j2FW/X7lp1Ri5afnHf/8SjT/Wr/+c8qz/h9PrPtiYtb97TkmeNd7HgM+MYRf4luce0+uStz72XnHXV+awV2ZYUnBksQULCnIwbAHAAAAAAAAAAAAAAAAAAAAAAAAAAAAAAAAAAAAAAAAAAAAAAAAAAAAAAAAAAAAAAAAAAAAAAAAAAAAAAAAAAAAAAAAAAAAAAAAAAAAAAAAAAAAAAAAAAAAAAAAAAAAAAAAAAAAAAAAAAAAAAAAAAAAAAAAAAAAAAAAAAAAAAAAAAAAAAAAAMD/24MDAgAAAAAh/1/XEAAAAAAAAAAAAAAAAAAAAAAAAAAAALAAlA0jYsNJrQgAAAAASUVORK5CYII=;" vertex="1" parent="1">
          <mxGeometry x="368.52" y="345" width="42.5" height="42.5" as="geometry" />
        </mxCell>
        <mxCell id="sNuDHfzyufjpb4VffAJZ-18" value="" style="shape=image;html=1;verticalAlign=top;verticalLabelPosition=bottom;labelBackgroundColor=#ffffff;imageAspect=0;aspect=fixed;image=https://cdn1.iconfinder.com/data/icons/ionicons-fill-vol-2/512/logo-docker-128.png" vertex="1" parent="1">
          <mxGeometry x="334.77" y="280" width="30" height="30" as="geometry" />
        </mxCell>
        <mxCell id="sNuDHfzyufjpb4VffAJZ-19" value="Cloudflare tunnel" style="text;html=1;align=center;verticalAlign=middle;resizable=0;points=[];autosize=1;strokeColor=none;fillColor=none;" vertex="1" parent="1">
          <mxGeometry x="339.88" y="375" width="110" height="30" as="geometry" />
        </mxCell>
        <mxCell id="sNuDHfzyufjpb4VffAJZ-37" style="edgeStyle=orthogonalEdgeStyle;rounded=0;orthogonalLoop=1;jettySize=auto;html=1;exitX=0.5;exitY=1;exitDx=0;exitDy=0;entryX=0.5;entryY=1;entryDx=0;entryDy=0;" edge="1" parent="1" source="sNuDHfzyufjpb4VffAJZ-23" target="sNuDHfzyufjpb4VffAJZ-14">
          <mxGeometry relative="1" as="geometry">
            <Array as="points">
              <mxPoint x="210" y="484" />
              <mxPoint x="395" y="484" />
            </Array>
          </mxGeometry>
        </mxCell>
        <mxCell id="sNuDHfzyufjpb4VffAJZ-23" value="" style="shape=ext;double=1;rounded=1;whiteSpace=wrap;html=1;" vertex="1" parent="1">
          <mxGeometry x="120" y="340" width="180" height="80" as="geometry" />
        </mxCell>
        <mxCell id="sNuDHfzyufjpb4VffAJZ-24" value="" style="shape=image;verticalLabelPosition=bottom;labelBackgroundColor=default;verticalAlign=top;aspect=fixed;imageAspect=0;image=data:image/png,iVBORw0KGgoAAAANSUhEUgAAAfQAAAH0CAMAAAD8CC+4AAADAFBMVEVHcEz2kjT0gSHzgCD2kkDzfx/6rj/0gCDzgCD1jjj7t1X7ulzzgCD0gCDzgCDzgCD0gCD6rkD6rkH6rkD7rj/6rkDzgCD7r0H7rkD7tlP1gSDyfh7//fvzgCD////3jyv0gCD////zgCD0gCD3ki30gSD0gSD0gSD2hiT0gSH0gCD0gSD0gSH0gSH0gSD0gCD0gSD0gSD5nDP0gCD0gCD1giL7r0D7r0D0gSD2jSnzgCD0gCD0gSD1gSH7sEL0gSD0gSHzgCD0gSD7rkD6rkD0gSDzgCD0gCD0gSD5njf0gSD0gSH0gSD0gSD8r0H6rkD7r0H0gCDzgCD0gCD7r0H0gSD0gSH7r0D7r0H6rkDzgCD4lzD6r0H6rkD7r0D0gSD0gSH0gCH0gSH6rkD6r0D8r0H7r0H6rkD7r0D6rkD6rkD7r0H6rkDzgSD7r0D////ybAH7ulr3ljD6r0D7r0H9zIT7u171kkD/+/X//////////fv5vYv4sXb/9Obycgj6sEX7r0HzgCD6rkD////zgSL//fvzgyX//v7zgiP6r0H///76sET//fz//////vz6r0LzgSHzfx7xbQDycwjycQbxbwHzgCHydQ30hCfzfhzzfBjydg/xcAP6rTz5oybzehXycAP5oiPydArzfRr6qzjyeBH6rkH6qDH6pi3xbAD6pCj6pSv5oSD//fryeRP6qTP/9+32l0j0hyz+8eX/9Or2oVn3qWj/+/f1jTb+7uH8w3D2nFH/+PHxagD1jzn97N3/+fT3o175uIH7skj0izLzgSP96Nf91p77uFb7tlH8xnf8zIb83sT817n71LP6x5z5u4b3pmP1kDz+58X827/4rnH95dH7s0z93a72nlX84cr2mk36wZH7zqn6xJf90pP1lEP94878wWv70rD4rGz4tXz4sHX6y6L+5L37zab8z43/9OP+6s3+8d3+7NH92qf94LT5vYv4snj7ulv70K38yoD5nxv1k0H6sUb1kj/93rH8zI77vWL7vF/+7tc9pAccAAAAgnRSTlMAAWH9cfr6BfsFBXH6Av78A/wF/QT+BGEDAgQEBPlhC8f89PcUkqGYDi7PX0k/g9pqqAjguyScuHkX7bBEM2lWUtWM7cuH5rhmB7wdTykf4DbD6cArWjtQsdbwLZP3jX9vYzbwYD9awHn06Iiic2Sz+3FfqEYGc3cOL5dy82pj+/qDKZ0bpgAAGHZJREFUeNrsnXlsFNcdx98wknf/2GOw2YkPXIPv+8QONuYy4IMjYAwp8EcAR2mjqmn6R6uef72ZuClxhQsJSUiCIwKhpFGbVAX1UImUVK2UKm0jtZUq9VT6XxS1/aNppUpV35vZ9a7XJjtvd2Z35vn7kYyJccC7n/2db3aXEAAAAAAAAAAAAAAAAAAAAAAAAAAAAAAAAAAAAAAAAAAAAAAAAAAAAAAAAAAAAAAAAAAAAAAAAAAAAAAAAAAAAAAAAAAAAAAAAAAAAAAAAAAAAAAAAAAAAAAAAAAAAAAAAAAAAAAAAAAAAAAAAAAAAAAAAAAAAAAAAAAAAAAAAAAAAAAAAAAAAAAAAMBzFEaUoWn8V/5fuE/kla1V63qoZhXFSk1I13UN8uXSrYeiy77Q2jh8YHDwwHBrnZb5dS1UDfUS+I6G9NTvD4ye7W6e6Rmvp8uoH9893dfd0TWY1K3oIZgPcICH7DjWDnW0TI/QLGLZX6AjMy2TbXZKqIH4IBrX7QgfPNs3npIajoTD4biqxjiWd46qxtmXI+HUdw309Q7a4vUo7sfgELVL+OAj03HLoxqOxNWVkZ0d+uzbwqr98Jh5pC3jLwK+j3FLlLZrW4NlknnMqTtbvfU/1G7bNQXvgaCal/HW3k228LiQ7wzzcVt8e28rfwBVo777Oa3zXzrarQydzNR5o4bDtvd+9pci3H2KxoN8dAs3lXeIrwh4/mnLaOpvBz7L6ywFt3bXW8api1jeG8Z4mg/hXvYV3EfbBHcUjlGXiYX5o2hiO7T7TvnB3TzIVeoJKg/3gZ3Q7ivlx0/xzot6CO8LT3VAuz9qOfvoYKU8HKceE2cPqtre5D8JStixs1HqYL0dh97Ds3wDS/JRdPKlXL4RMjvgXSlfXft4F8vxWNeUrpi3ThcrytM7G0o3NaK0l2j9xnLsPiYhTotMnP2LTezfx5KuFGE+ykI8QksAHxN2IdiLHuaspk6USLm156V0ml+XAxNFDfPjLM+qtGTwqtKBYC9i015DyEwJw3wp2NvZzIg2vljrmC5WV2O0xMRYae8kRIeRoqT25pKH+VKw9yHFF4Ea0n+Uqir1BeznqG8kNUjx3nbthHT6JMxtaq3hDWtZD2H1s8kek30D+2FaUNi9LeebfJPa05fP0h4Udg+d1zX4KbWn+zm1Fda9auEOUT86t36oWdR1b3q4Tp86twp7h7UaBq5u4Qg5Q2mc+hT2g221Zgvg6qjGj1Gpb4nZx60w5arzJqrGqJ9R+XYO1t103uzf1J4u7Ntg3c163uevjQysF8F5cxCcw7qrtPg/t6cG9j7rQQoKLuj7guKcx3oTQt2NPVyvn0e1lT38VuzmCt+3d672QlB+pgN7+EKdt9EgBbr1AJ2F9ULQST8NTkFf2si24ny9oKVMfTCGtazTF1xLUwib/Hqu9tGDWw8Gt/wb96YgOufWWxDq+TfuKg0kKt2FZi6/Jq6OBlU6a+Eb0czltXEfCV4Tl27mGlDW8ynozfyi8qBSS/tQ1sULeldQc3uqrHeirAtP6DTo0qmCsxfBir4pmNNa5tzWjqoultyPB7eJSzdz65DgBZN7LOjS2Q2IIsELSN8f9ORuJ/hpSBdZxcWpBISxmBNYy6jB7twzOnisaJwG+pgMyd1O8E0IdSdopJFKxDAWc466uOngj2vpqt6OXi431WRWjoKeuniqC68P74ABOVr3lPRxGM3dxe2UJ7nbCf44ermcNMiU3fnYVouxLVegr5NlXEuPbb0I9RzUyxXoCHVHgR6mVLZQP7v2Ql2JaroestB1LcdrMEkX6DzU69fWokUPrbKP0kJa9C4z+kH5Ap038DvXSqgrWvJ9rKoP3L+z9/S+sbHurZO7tg8n/zS0ysvjK6RHphk9PasPrJENuvXQnurq3j+SfR+MT5zusv40OwtoZLt8yd1O8Nvl38ArltO2sZ5UfuNEItan5Jd6xrZb3pVl0vfLmN15fp+QXbql/FBLg5XZIuHsl3+LqWH7Hc5rm9u49mj6pKWVSkur1OculvLJAZ7UIvG7XucWi1tvlXn0DPvmmmhqXuuWbTGTntrGZG7l+E3bx63mfv9T1fqWlrpkklek28BmFnWJn+XEC9dW/sh22INbb0bfXG09VqpJp5wV3W7gR2U9YWXq1nHlAlcvx7j2bv6e2NK2cXYrt0XOVo7dqOEeMeXJgkfVUd7ISXCt+10f25ROydjKsTA/nd9bmfNon2Ddn6xtnP3InpSwlashdUfzfiMl/s6lg9MybuPSRV2+i+XY7RmlhTyfXOIgT1EnmXVWzscKfL80VZVbuXTXUlTzdzmOqRSsnfyuE7J7LeTnQvv3kETWWZwfhXMHo/pBeV5wSueXu9RCam7pfWzEkaaHG4DztbV/Z7eiHbndYVU/JMkqNkr64Nzp0HZGjqEtRCblPSVxvajvl6Ko62RQ4lMS14u6FM96sF4FKg6djov6oASTukYm0LgLFPWnv0DKg1/QRxHnAnztpa8GPr8rgX/91mJL/+wvv0w2VgW8i2vGtCbES7fMrxCycePGKkVRqiwUTpAK+gFoFOHrz/zBfNx8dOMqOXMDp7JKCYD0GYzoQtn9lV+Zc5tN89GPfemLClE+PzXV31++PNkr5Uy9r8/W2jChi/DN5y6b5hMms85+NT98+6cLhs36PYf3nhh6+OPH6pJ3bfmGKt+2cbsR6EKB/sLvzDlm3Ny8ebP53r+vXDGWqGAfCf5x8tM7jkwlxSt+TO5t6NyF+Nmln5vf4NLN8+ZPvr2wwC0bCU7FekZZWcI2bxwe+oT1fO7K8irfSd+CQBdq415+w0xy3vzn1XljJYkEt2/9ds/Q5/i9XFXup3iX+hmm3mT3i7+2szuX/uObq0lPqq8os8Xv3dHP7ukNlT5axnVjRhfh6csvf4cNbKbdxl25fs74SJLi997Dlfsn3EdQ0oUC/ck3kxWdBfrfFxeMnCTWl/FPJ45w7VVo44JY0i++k5I+Z/5lcd5wgu19z8Ms0isrfZDdm5DdRXjsxWfNNG+/tmA4JLGez3NDjb7QfhSRLtbGvZtu416/aYhQwcP93mOl1h7F2l20j3vyFrOdlP7fq/NC1o0E1/7J+1grr5Qyu08iu4udtXwv2brnGtjuxvoEi/ZhUsKLMGrINmxmxM5a/pbK7nxgu3LDEIfPcEN8cMfAFoyzlmvXLNsCA9tq8CS/o1Q53lrH4YQtj7MWa2B7f3HeMPLW/qljpcnxGpnFtXFCJX3prEVwYFu1pRsqSbDrpBclXeis5Ydm+rBFcGBbpbQnHipBZQ+RFkgXGtL/nJHdf391viDrhh3s5UVv3nGsKjKjX3j+BxkD23s3C5RuVFQYD95HlOLu4/lFM6jpAmctt5cqet4D24pg31HcFK9gCSuY3d9Zyu7nzQ8Kze6pyn6iqCmeSY9AuthZyxNuDGzLD2KMB+uKaN16ZgvGdMeBfumtpUAvcGDLTvEPkUoF0n25jnvq+6mzFvb51qs3DJdgKf4zhFRBuh/PWv661Lq7MbAtt/4AIZWQ7uezFntgW3BNupGoMO4tknVIF2njnruQbuPY5+tXbhguUmbsLc7oxqTHId3xvPZuZqB/sLhgGO5aP1kU60z6KYxsDrdxl5+fS5f0844viRSxfrhIa5oebOScBnrmvPa4+b9vuRzpSeve13WNTGP37mxcu/aimQ50awd7znDf+skiWA+RZkh32Lr/MSPQ+ZTuvvNkN+f1vK6TrZDubANL0607l/6bxQXDE+sninARRSekOwr0O7/N3MDOmf+4Om94Y/0BrxM8Lnt36Pyp20sLWK+a96WXNbjH09MXRYliO+Ooi7v8zFyW9A9f9Uh6wjCOeGJdiWq6nnwT5BnMbA6S+58ykzuX/oubHknne/gpt8d1Rct4h3utUUH7ntv5pTfT01oBz21xXNb3uPlylEy4Hd6tsx1NW3aPwKej07XvPmYuS+7eRrrdwrs0tym6/br095+eqE/fIhT0nAX9wsUfLU/untZ0O8PvcKWsa5bxtu52+5aokXA4rsag3EGg3/lXtnMm/f1FD6WzZm644LKuWMa7mq0Ij0fCKmQ75tk7b2Xldk/n9FSoF1rWLeWDTbVWgMfhW8z5K7fNlfCNnJfSWVkfKiTUo1z58R4e4mGcogo7v/Qfc2Wgu3uF3F0yfP7TuhXl+3jDFoHxPJy/8IaZ8YRFM+OUbeH6OcPTBF+Wb4Jnyv/P3pkGt3WVYfiagTiUeIgTEzotkLa0BMiEYUqBtGUKDEtnSpuhA6SFaX8AaQuFYch0hn9suVebJc+VbUm2ZVuyJcuWLVvel6Sxs8dL0izOZidpkibN4iaxk9bN1inlnKurzdZyJd+rq7rv8ycTp5Gdvuf7znfe7ywPryA//EIYMOlpvium5gov1MUE/0JaCZ6+B/oQ+dkXYR5PM7fv4mYV7mlfN5M6a1JXPW8xw6yG5HOp4TrixDndTtHnVVjyfPbVdDL72t9B8vQ9Gd3A9riay3NmNWmCT7HflpfHME9C8jlYMiUDFxJoLtv5xcQWTUq1HAnzH5FVOcq3tHssrbX7Y63VIhn2mlnFa7klqWj+1AbcDzeH1G4r6eKKjIkk57mpFsVLOfbrUjsvJLN/g6zSkNnTDnP7wHGO83OJ0XOv+xSf1Z+XWMAvE4p2hHn6Ye62nIq3VIsKdaPXY1Y61B+VtGOOpPZH8FbuHMK8buDONk7Pc1xy1adazA0Kh/r3pYiey+Q8hr0w6RftGlvrOxLCXFT92s0MODR3J9f80Q14HjltyQ3u0vNcopXaTAv+8k1Tg9qz+jLmD5jO05e8vPTk1uQVXFTfZegmq/C8vjxJAU/PLiC3p1m+lVma3jpGolzPcamoft3nvd2g4lr9XuZplHDpUGbQ1dmsx8+SabqISw2eax9rcSiX45PZcrlUc3TNU0Wj09ktpZUXu1OYzKN2TnFDbU6HyaxYqCfaJJnLrILmKeZ0g06nqbE2tfbs49KI8mCsc/xej6uNNZmUWMAtpYfW42v+zCc7t5cJFAfRBNhtCKObQXFdvbXUWtH7Ni3dtDyXLnSBNz7c6Gr0EOEJZkJDQ4NsCf7X8VZtufS6/s9/TLWKI9IslWJA/zONpri4jHxUCcFOqKurq6yrJNTUtLa21tdXEcrLy91ui8VitVqrq6ttlFKLfWPvga1UtiKtkZsDgpXTPn7uttfldPqaG70ej8PBNphNImQQFDakn99fi7NqW0xPIqpTt2sM0cRQpiJCIYNht0ZQqUz42wGhqExhkUSV3IJKVCZCbXVQK1upQBOhtNRmq60lf2pxu8vLyV+qb22tqSEfZC+xl2h0FZ2du3Zt3HLozlsdHSdPbj7e07N9dLT3/MWjF997b8fp9090iYGq1XNzxRiwc/qvfjC0d8+56RGTw+Nt9LlcLqePDoI2MgpY1mwODwLpM0HcUi6HXh6jyvrcYKgUVQoEU0gnUSNRH/oL/W2toBFRyUJ0IkIFlKIqFRsqRJGoSlSmzSGZiEoXLuw4ePDdN988feDApXdOvf/2/n1Hjhx5440TJ84eOzY4uHXrpk1d3d3t/dv6+lKSsEjLGzl54KMnCH//lY+uHr5+7QwZBB8OjxWSQdDsc9JRIA6CQqlmXj77XMxQX8x8TR0fzlBlq9hIg+mWINPxnu3bR3tDKr0bVCkg0z5BprNnAyp1dQkiaYt4TmmMer2eJxQRtFo/Rasl31gv9zci30OrjfOxfd2TU2QQDF2+8fqHwyO3Hc3NZqmixzTgc5kfqjOfG6xbBpURSZBIm4SiIHwIvYAxBKcSRmP4Z4qdTPr3+MxzyO/LmAfVOYlocHcEChkhjviiSBKqNFOkaKW4+Qf5Vwn/j0geEP7VwhelnnzNZ1+eld9z6ONqahRxxfaaVJxqEDUK/NwViaFO83vBrEBX6WFkg7tHYhMSxPLt/W1p1+/L6OYodfYbWHq5IqiXbtHHtUsv5X4ZXcqREfCASq7M7taN1MniY8zQ83Vulm2GJ3Uet1fqHjt6z9iS6Mr9W6p10A22S8m8Kr2MFd7HvYrjxQARvzwu+f7B/Bn++2JauatmoZZYj56lS+5uaoxQZ8SvVXTVLXEtN3sI8ZkcPkGNE6zX+L6P9jhT6a8+HLmVIo95VsWtMmVlVptVNELLq+pba6i3tkFjoA4oddcE2+bWTNtmh2DbnA6Za9S2CZhrg4ODIdfGr6Rrw2v9cnszxkAoxx5Qfe2TU4cnPhii/tz/hsdMjjZnKg9D5LMvRdTv9zBr1W2n6gy7qZeuKRZs9JCLHmWjhw1aa8CgDTnosw3aWP5s2ES/JbrogSF0PjCEZtiz+6Lt2S7RnvUXJXVO59Jxifog47buyamrE+NDogdrDnmwzuZG0Yk3m1JquvwlalL/edb01oKNTU2shpmkVkxEJ6YkVicmsl0mNmKsiRoxFrERU08bMeRj6uyCx9/ZuWXz6I79mwS5tDJkjcAvVw5fu0zjeKfD0+ZtFiT2NYe6LYXBdos5pXZLMNJ/Gk7v1H+dp3viyhL0XKW1XEkGmtlxDQ6h+nKrrdRq33ypm+PmZjUEFO+b2Dvs8AmBLGjsIBrL0leNvVJ/DJtlpI6eiM0VwrjRVLpLLR375iK7kNUnz0x7Xb42hzmssQI7aNYEQ30eB3qGdkttKG/SneKSnFVMtGOmfWjE5/QqtFUqTnsV7+PO1WrQ1QzsOpbOlkgq+dS5ZlebWWHBg5VcgWjArsKOZxl2w1YN7Eg5xdO8fn3E1ciaFD/DGIj0V0QjNo+5D9ldlt0/A4dSU52uxid2trSZTGxmWEqvkMSzDLJSYS3mpatON8QdHmvxZCbIw+V7oIx7COfW5FK9vNIvVXWS2fvPkSjPnOQCD4rttYW4uVsmSnTuzmR3zEQcaWluzrTktLuKl5bkVr3C1iMxzK/sbGFNLJtp0V8OHFd8EqLLmeEHLiVP8DTMnW232YyzgP0TnsFWwKqxu/3JEryWM063sGZWDdFfELL70wh0WdFVjyb2aIx6brKtWYUwF9L7a4Loj0N0mWO9titRqJM/Gnd5TKxKor8iZPevwoKVO9R7E8zqRPMbN1VJ7QHRf0u3ST2DGV1myuytPKePr/m5FlODSpqzS+md0LnMajgzsod606l4oU40n3bdZln1RP8JjfT70GyR3YR3b44zqZOvjvlU1JyI/me6Tl+IKV32Sq6ujouZ34nmI6pqTkR/kWj+C0zpCoS67VisVRvRfFhdzdkv0Id8mJVYsCkwqZceiDGpk9ifdqqrORE9X3iRB3Wc/KJbj8as5Pa4VNaciE7TO+q4TFVyPDfUYlJZc3FOfwB1nAKi1x+K4bdPtJhZ9UUn1ftydFsUQFPTKVz4GhXn/T5HYRaI/irDfBcKKSF6pW6G6OQ3Y17Vk7tow/4AU3pGROe5va4s0Fw42MR8G6JnIr1rucMt2aC5cO8M8zOIrkQhR+/WMEYld4fHnA2i0wfVmRXwZpQQvaojyoYlyd2ZFYFORP8vwzyOSFfEnBmNNGd4btKVFXFO0/sTDPMslulKiF59MNqRG/FmjegvUUMOoivhve+PEJ3aMtmR3Ok6fQ3DfBOiK1G9W7dG2bA7PVkS6MJVQ8yPIbr8FFeWRBTvWm48iwL9jwy93h0urPzF+4x+izlbAl3wZu5GpCszpZ8OT+k8N+HKlkAnon+PKcCcrsiUXhs1pQ9nS+kefKgL1bsSJmxFeEona3Rn1mhO5nT6ZNMjMGcUsGZ6I7P7DV/WZHdSvOcwOXDkFF6lk4D3OBqyZ0oXbgReAdHlpqykalvIeddy17OnjCOi/5VeE7oaosu+YKu6E9lhm86eMo7UccIrLr+B6LJnd1vYeOclP7CSIYQLI9dCdNkjPeKkA89ddpqyqHYXzjThzKr8HmydPbRgEzZPFGbRlP68cF/kcqgkMxW20YhAzyI3jmVfZNcFLgn91YYvL1SPRZ+Zbyz699/b7w/iv//Mzf8syAz5SVkQvvj7O6rmQs18o+ROxN0jem7bToe5MANIu0tYfEE9j2FW/X7lp1Ri5afnHf/8SjT/Wr/+c8qz/h9PrPtiYtb97TkmeNd7HgM+MYRf4luce0+uStz72XnHXV+awV2ZYUnBksQULCnIwbAHAAAAAAAAAAAAAAAAAAAAAAAAAAAAAAAAAAAAAAAAAAAAAAAAAAAAAAAAAAAAAAAAAAAAAAAAAAAAAAAAAAAAAAAAAAAAAAAAAAAAAAAAAAAAAAAAAAAAAAAAAAAAAAAAAAAAAAAAAAAAAAAAAAAAAAAAAAAAAAAAAAAAAAAAAAAAAAAAAMD/24MDAgAAAAAh/1/XEAAAAAAAAAAAAAAAAAAAAAAAAAAAALAAlA0jYsNJrQgAAAAASUVORK5CYII=;" vertex="1" parent="1">
          <mxGeometry x="130" y="360" width="40" height="40" as="geometry" />
        </mxCell>
        <mxCell id="sNuDHfzyufjpb4VffAJZ-25" value="Cloudflare tunnel" style="text;html=1;align=center;verticalAlign=middle;resizable=0;points=[];autosize=1;strokeColor=none;fillColor=none;" vertex="1" parent="1">
          <mxGeometry x="170" y="365.24" width="110" height="30" as="geometry" />
        </mxCell>
        <mxCell id="sNuDHfzyufjpb4VffAJZ-26" value="&lt;div&gt;api.teguiei.com.br&lt;/div&gt;" style="text;html=1;align=center;verticalAlign=middle;resizable=0;points=[];autosize=1;strokeColor=none;fillColor=none;" vertex="1" parent="1">
          <mxGeometry x="90" y="260" width="120" height="30" as="geometry" />
        </mxCell>
        <mxCell id="sNuDHfzyufjpb4VffAJZ-29" value="&lt;div&gt;&lt;font style=&quot;font-size: 10px;&quot;&gt;IP ElÃ¡stico&lt;/font&gt;&lt;/div&gt;" style="text;html=1;align=center;verticalAlign=middle;resizable=0;points=[];autosize=1;strokeColor=none;fillColor=none;" vertex="1" parent="1">
          <mxGeometry x="455" y="330" width="70" height="30" as="geometry" />
        </mxCell>
        <mxCell id="sNuDHfzyufjpb4VffAJZ-32" value="" style="sketch=0;verticalLabelPosition=bottom;sketch=0;aspect=fixed;html=1;verticalAlign=top;strokeColor=none;fillColor=#000000;align=center;outlineConnect=0;pointerEvents=1;shape=mxgraph.citrix2.tunnel;" vertex="1" parent="1">
          <mxGeometry x="230" y="470" width="139.53" height="30" as="geometry" />
        </mxCell>
        <mxCell id="sNuDHfzyufjpb4VffAJZ-33" value="Tunnel Cloudflare" style="text;html=1;align=center;verticalAlign=middle;resizable=0;points=[];autosize=1;strokeColor=none;fillColor=none;" vertex="1" parent="1">
          <mxGeometry x="240.99999999999997" y="499" width="120" height="30" as="geometry" />
        </mxCell>
        <mxCell id="sNuDHfzyufjpb4VffAJZ-34" value="" style="outlineConnect=0;dashed=0;verticalLabelPosition=bottom;verticalAlign=top;align=center;html=1;shape=mxgraph.aws3.s3;fillColor=#E05243;gradientColor=none;" vertex="1" parent="1">
          <mxGeometry x="730" y="230" width="30" height="30" as="geometry" />
        </mxCell>
        <mxCell id="sNuDHfzyufjpb4VffAJZ-39" value="" style="rounded=1;whiteSpace=wrap;html=1;" vertex="1" parent="1">
          <mxGeometry x="710" y="270" width="140" height="180" as="geometry" />
        </mxCell>
        <mxCell id="sNuDHfzyufjpb4VffAJZ-40" value="&lt;div&gt;AWS S3&lt;/div&gt;" style="text;html=1;align=center;verticalAlign=middle;resizable=0;points=[];autosize=1;strokeColor=none;fillColor=none;" vertex="1" parent="1">
          <mxGeometry x="760" y="230" width="70" height="30" as="geometry" />
        </mxCell>
        <mxCell id="sNuDHfzyufjpb4VffAJZ-41" value="" style="sketch=0;points=[[0,0,0],[0.25,0,0],[0.5,0,0],[0.75,0,0],[1,0,0],[0,1,0],[0.25,1,0],[0.5,1,0],[0.75,1,0],[1,1,0],[0,0.25,0],[0,0.5,0],[0,0.75,0],[1,0.25,0],[1,0.5,0],[1,0.75,0]];outlineConnect=0;fontColor=#232F3E;fillColor=#7AA116;strokeColor=#ffffff;dashed=0;verticalLabelPosition=bottom;verticalAlign=top;align=center;html=1;fontSize=12;fontStyle=0;aspect=fixed;shape=mxgraph.aws4.resourceIcon;resIcon=mxgraph.aws4.s3;" vertex="1" parent="1">
          <mxGeometry x="730" y="287.24" width="32.76" height="32.76" as="geometry" />
        </mxCell>
        <mxCell id="sNuDHfzyufjpb4VffAJZ-42" value="UsuÃ¡rios" style="text;html=1;align=center;verticalAlign=middle;resizable=0;points=[];autosize=1;strokeColor=none;fillColor=none;" vertex="1" parent="1">
          <mxGeometry x="711.38" y="315" width="70" height="30" as="geometry" />
        </mxCell>
        <mxCell id="sNuDHfzyufjpb4VffAJZ-43" value="" style="sketch=0;points=[[0,0,0],[0.25,0,0],[0.5,0,0],[0.75,0,0],[1,0,0],[0,1,0],[0.25,1,0],[0.5,1,0],[0.75,1,0],[1,1,0],[0,0.25,0],[0,0.5,0],[0,0.75,0],[1,0.25,0],[1,0.5,0],[1,0.75,0]];outlineConnect=0;fontColor=#232F3E;fillColor=#7AA116;strokeColor=#ffffff;dashed=0;verticalLabelPosition=bottom;verticalAlign=top;align=center;html=1;fontSize=12;fontStyle=0;aspect=fixed;shape=mxgraph.aws4.resourceIcon;resIcon=mxgraph.aws4.s3;" vertex="1" parent="1">
          <mxGeometry x="797.24" y="290" width="32.76" height="32.76" as="geometry" />
        </mxCell>
        <mxCell id="sNuDHfzyufjpb4VffAJZ-44" value="&lt;div&gt;Roteiros&lt;/div&gt;" style="text;html=1;align=center;verticalAlign=middle;resizable=0;points=[];autosize=1;strokeColor=none;fillColor=none;" vertex="1" parent="1">
          <mxGeometry x="780" y="315" width="70" height="30" as="geometry" />
        </mxCell>
        <mxCell id="sNuDHfzyufjpb4VffAJZ-45" value="" style="sketch=0;points=[[0,0,0],[0.25,0,0],[0.5,0,0],[0.75,0,0],[1,0,0],[0,1,0],[0.25,1,0],[0.5,1,0],[0.75,1,0],[1,1,0],[0,0.25,0],[0,0.5,0],[0,0.75,0],[1,0.25,0],[1,0.5,0],[1,0.75,0]];outlineConnect=0;fontColor=#232F3E;fillColor=#7AA116;strokeColor=#ffffff;dashed=0;verticalLabelPosition=bottom;verticalAlign=top;align=center;html=1;fontSize=12;fontStyle=0;aspect=fixed;shape=mxgraph.aws4.resourceIcon;resIcon=mxgraph.aws4.s3;" vertex="1" parent="1">
          <mxGeometry x="733.62" y="349.87" width="32.76" height="32.76" as="geometry" />
        </mxCell>
        <mxCell id="sNuDHfzyufjpb4VffAJZ-46" value="" style="sketch=0;points=[[0,0,0],[0.25,0,0],[0.5,0,0],[0.75,0,0],[1,0,0],[0,1,0],[0.25,1,0],[0.5,1,0],[0.75,1,0],[1,1,0],[0,0.25,0],[0,0.5,0],[0,0.75,0],[1,0.25,0],[1,0.5,0],[1,0.75,0]];outlineConnect=0;fontColor=#232F3E;fillColor=#7AA116;strokeColor=#ffffff;dashed=0;verticalLabelPosition=bottom;verticalAlign=top;align=center;html=1;fontSize=12;fontStyle=0;aspect=fixed;shape=mxgraph.aws4.resourceIcon;resIcon=mxgraph.aws4.s3;" vertex="1" parent="1">
          <mxGeometry x="797.24" y="349.87" width="32.76" height="32.76" as="geometry" />
        </mxCell>
        <mxCell id="sNuDHfzyufjpb4VffAJZ-47" value="MÃ­dias Cache" style="text;html=1;align=center;verticalAlign=middle;resizable=0;points=[];autosize=1;strokeColor=none;fillColor=none;" vertex="1" parent="1">
          <mxGeometry x="700" y="382.63" width="100" height="30" as="geometry" />
        </mxCell>
        <mxCell id="sNuDHfzyufjpb4VffAJZ-49" value="Maps" style="text;html=1;align=center;verticalAlign=middle;resizable=0;points=[];autosize=1;strokeColor=none;fillColor=none;" vertex="1" parent="1">
          <mxGeometry x="788.62" y="382.63" width="50" height="30" as="geometry" />
        </mxCell>
        <mxCell id="sNuDHfzyufjpb4VffAJZ-52" style="edgeStyle=orthogonalEdgeStyle;rounded=0;orthogonalLoop=1;jettySize=auto;html=1;exitX=1;exitY=0.5;exitDx=0;exitDy=0;entryX=-0.011;entryY=0.552;entryDx=0;entryDy=0;entryPerimeter=0;" edge="1" parent="1" source="sNuDHfzyufjpb4VffAJZ-9" target="sNuDHfzyufjpb4VffAJZ-39">
          <mxGeometry relative="1" as="geometry" />
        </mxCell>
        <mxCell id="sNuDHfzyufjpb4VffAJZ-53" value="" style="outlineConnect=0;dashed=0;verticalLabelPosition=bottom;verticalAlign=top;align=center;html=1;shape=mxgraph.aws3.rds;fillColor=#2E73B8;gradientColor=none;" vertex="1" parent="1">
          <mxGeometry x="539" y="459" width="36" height="40" as="geometry" />
        </mxCell>
        <mxCell id="sNuDHfzyufjpb4VffAJZ-55" value="" style="rounded=1;whiteSpace=wrap;html=1;" vertex="1" parent="1">
          <mxGeometry x="525" y="500" width="175" height="80" as="geometry" />
        </mxCell>
        <mxCell id="sNuDHfzyufjpb4VffAJZ-56" value="Amazon RDS" style="text;html=1;align=center;verticalAlign=middle;resizable=0;points=[];autosize=1;strokeColor=none;fillColor=none;" vertex="1" parent="1">
          <mxGeometry x="570" y="464" width="100" height="30" as="geometry" />
        </mxCell>
        <mxCell id="sNuDHfzyufjpb4VffAJZ-58" value="" style="image;aspect=fixed;html=1;points=[];align=center;fontSize=12;image=img/lib/azure2/databases/Azure_Database_PostgreSQL_Server.svg;" vertex="1" parent="1">
          <mxGeometry x="545" y="508" width="48" height="64" as="geometry" />
        </mxCell>
        <mxCell id="sNuDHfzyufjpb4VffAJZ-59" value="Postgres" style="text;html=1;align=center;verticalAlign=middle;resizable=0;points=[];autosize=1;strokeColor=none;fillColor=none;" vertex="1" parent="1">
          <mxGeometry x="600" y="525" width="70" height="30" as="geometry" />
        </mxCell>
        <mxCell id="sNuDHfzyufjpb4VffAJZ-60" value="" style="rounded=1;whiteSpace=wrap;html=1;" vertex="1" parent="1">
          <mxGeometry x="532.5" y="140" width="175" height="80" as="geometry" />
        </mxCell>
        <mxCell id="sNuDHfzyufjpb4VffAJZ-61" value="" style="shape=image;html=1;verticalAlign=top;verticalLabelPosition=bottom;labelBackgroundColor=#ffffff;imageAspect=0;aspect=fixed;image=https://cdn1.iconfinder.com/data/icons/logos-brands-1/24/logo_brand_brands_logos_maps_google-128.png" vertex="1" parent="1">
          <mxGeometry x="545" y="160" width="40" height="40" as="geometry" />
        </mxCell>
        <mxCell id="sNuDHfzyufjpb4VffAJZ-62" value="API de mapas" style="text;html=1;align=center;verticalAlign=middle;resizable=0;points=[];autosize=1;strokeColor=none;fillColor=none;" vertex="1" parent="1">
          <mxGeometry x="585" y="165" width="100" height="30" as="geometry" />
        </mxCell>
        <mxCell id="sNuDHfzyufjpb4VffAJZ-63" value="" style="shape=image;html=1;verticalAlign=top;verticalLabelPosition=bottom;labelBackgroundColor=#ffffff;imageAspect=0;aspect=fixed;image=https://cdn2.iconfinder.com/data/icons/google-ios-7-app-icons/120/google_maps.png" vertex="1" parent="1">
          <mxGeometry x="542" y="100" width="30" height="30" as="geometry" />
        </mxCell>
        <mxCell id="sNuDHfzyufjpb4VffAJZ-64" value="Google" style="text;html=1;align=center;verticalAlign=middle;resizable=0;points=[];autosize=1;strokeColor=none;fillColor=none;" vertex="1" parent="1">
          <mxGeometry x="574.94" y="100" width="60" height="30" as="geometry" />
        </mxCell>
      </root>
    </mxGraphModel>
  </diagram>
</mxfile>
